<svg xmlns="http://www.w3.org/2000/svg" width="500" height="500" version="1.0" viewBox="0 0 375 375"><defs><clipPath id="a"><path d="M232 86h70v143h-70Zm0 0"/></clipPath><clipPath id="b"><path d="m189.871 129.57 99.953-47.672 47.672 99.954-99.953 47.671Zm0 0"/></clipPath><clipPath id="c"><path d="m189.871 129.57 99.953-47.672 47.672 99.954-99.953 47.671Zm0 0"/></clipPath><clipPath id="d"><path d="m189.871 129.57 99.953-47.672 47.672 99.954-99.953 47.671Zm0 0"/></clipPath><clipPath id="e"><path d="M233.324 237.727h60.305v58.113h-60.305Zm0 0"/></clipPath></defs><path fill="#fff" d="M-37.5-37.5h450v450h-450z"/><path fill="#fff" d="M-37.5-37.5h450v450h-450z"/><path d="M61.327 298.237V64.831H213.14v35.437H103.608v63.375H205.28v35.438H103.608V262.8h110.438v35.437Zm0 0"/><g clip-path="url(#a)"><g clip-path="url(#b)"><g clip-path="url(#c)"><g clip-path="url(#d)"><path d="M287.527 87.617a13.1 13.1 0 0 0-5.093-.707 13.1 13.1 0 0 0-4.98 1.29 13 13 0 0 0-4.13 3.05 13 13 0 0 0-2.64 4.402l-2.13 5.766-35.515 99.719a1.4 1.4 0 0 0-.059.363q.012.253.086.488l3.5 25.047q.071.52.407.93c.218.273.496.472.824.594q.726.252 1.426-.07.257-.08.484-.227l18.648-17.219c.082-.094.153-.2.211-.309q.112-.133.176-.297l25.164-70.41a4.17 4.17 0 0 0 1.942 2.473q.99.54 2.12.559a4.5 4.5 0 0 0 2.141-.48 3.9 3.9 0 0 0 1.672-1.45c.309-.465.563-1.305.41-4.188q.048-.216.047-.437a2 2 0 0 0-.21-.844 1.9 1.9 0 0 0-.559-.664 2 2 0 0 0-.38-.219 1.8 1.8 0 0 0-.417-.125 2 2 0 0 0-.871.043q-.21.064-.403.168-.192.112-.355.258a1.8 1.8 0 0 0-.285.332 2 2 0 0 0-.316.809c-.02.144-.024.293-.008.437q.018.222.09.43c.042.703.042 1.41-.008 2.113q-.385.177-.793.063s-.176-.106-.41-.86c-.497-2.234 3.507-7.125 6.703-11.054 3.472-4.274 6.75-8.29 7.543-11.813.3-1.07.363-2.16.191-3.258a7.6 7.6 0 0 0-1.191-3.043 8.85 8.85 0 0 0-4.5-3.195l.402-1.187q.45-1.225.648-2.52.197-1.293.137-2.598t-.371-2.578a13.2 13.2 0 0 0-8.402-9.273Zm-47.75 135.434-2.734-18.524 16.582 5.903Zm16.243-15.664-18.887-6.746 34.336-96.262 18.883 6.746Zm41.921-92.66c-.601 2.675-3.746 6.539-6.796 10.277-1.188 1.453-2.364 2.879-3.407 4.281l6.11-17.164.898-2.543a5.33 5.33 0 0 1 2.781 1.758q.471.763.578 1.648.112.892-.164 1.743m-4.968-11.125-1.414 4.078-18.918-6.73 1.457-4.075a9.5 9.5 0 0 1 4.847-5.46 9.5 9.5 0 0 1 3.637-.903 9.5 9.5 0 0 1 3.703.57l.914.324q.885.315 1.696.793a9.55 9.55 0 0 1 3.738 4.094c.27.562.48 1.152.633 1.758q.235.914.28 1.851.049.94-.085 1.868a9.7 9.7 0 0 1-.453 1.816Zm0 0"/></g></g></g></g><g clip-path="url(#e)"><path d="M263.285 248.547c-.875-.121-1.773-.047-2.629.16-.851.207-1.543.629-2.265 1.113a2.6 2.6 0 0 0-.59.43c-.535.418-1.012.879-1.48 1.39-.665.727-1.141 1.528-1.551 2.423-.375.808-.594 1.671-.86 2.519a22 22 0 0 0-.71 2.004.35.35 0 0 0 .034.3.1.1 0 0 0-.007.028 10.3 10.3 0 0 0-.82-1.617c-.555-.887-1.25-1.535-2.048-2.188-.773-.636-1.547-1.254-2.445-1.703a18 18 0 0 0-2.894-1.136c-.489-.149-.961-.34-1.446-.493-.492-.156-1.004-.226-1.515-.277-1.063-.105-2.118-.125-3.176.031-.938.14-1.871.563-2.723.977-.844.414-1.484 1.14-1.918 1.969-.457.867-.574 1.937-.707 2.902-.137 1.023.106 2.09.485 3.043.183.46.421.898.64 1.344.219.453.403.921.66 1.351.535.899 1.188 1.723 1.864 2.512.675.781 1.308 1.601 1.957 2.402.328.406.64.824.996 1.203.328.348.707.641 1.047.973.37.363.68.781 1 1.184.332.414.687.793 1.066 1.156.355.344.723.68 1.04 1.066.312.383.589.797.929 1.157.336.359.73.664 1.097.992.371.324.707.687 1.047 1.043a15 15 0 0 0 1.125 1.097c.399.34.813.664 1.184 1.036.723.726 1.433 1.472 2.172 2.187.281.277.59.52.902.758a.393.393 0 0 0 .453.344c.317.238.625.484.91.761.036.032.067.067.102.102 0 .183.094.36.289.441q.105.046.2.04c.152.152.308.304.472.445.379.332.933-.223.55-.555-.148-.129-.288-.266-.433-.399.305-.542.563-1.113.848-1.664.215-.418.433-.832.648-1.25q.546-.872 1.074-1.75c.461-.77.965-1.52 1.41-2.296.415-.73.793-1.485 1.176-2.23.008.003.012.01.02.015.086.078.18.11.27.105a168 168 0 0 1-2.22 4.547c-.226.45.446.848.676.395a169 169 0 0 0 3.157-6.579c.492-1.078 1.011-2.148 1.468-3.242.461-1.101.872-2.23 1.313-3.34.137-.343-.23-.546-.512-.445.156-.406.324-.8.531-1.176.204-.37.446-.722.622-1.105.203-.438.359-.895.53-1.344.634-1.687 1.364-3.402 1.65-5.191.284-1.77.09-3.676-.802-5.254-.785-1.383-2.293-2.5-3.863-2.711m-10.867 32.02a.43.43 0 0 0 .219-.188 8 8 0 0 1 .37.445q-.033.105-.062.211-.27-.228-.527-.469m12.398-28.34a5 5 0 0 1-.039.246q-.007.005-.007.011l.003-.218a.4.4 0 0 1 .043-.04m-6.175 2.617c.054-.055.101-.11.152-.16-.125.218-.246.441-.371.66q.035-.094.078-.188l.133-.308q.007-.005.008-.004m3.285-4.328a.5.5 0 0 1 .043.093 3 3 0 0 0-.313.438c.008-.082.016-.16.016-.238q.118-.153.254-.293m-2.063 4.187c.117-.121.227-.254.336-.387l-.629 1.102zm-16.543.414q.166.23.336.457c-.043.086-.094.172-.133.262-.035.086-.074.172-.109.258l-.18-.2.036-.265c.015-.168.035-.34.05-.512m17.664-.265q.007-.006.008-.012-.157.282-.316.558.116-.246.226-.492a.4.4 0 0 0 .082-.054m-13.734 17.066-.02-.031a.3.3 0 0 0 .09-.086l.164.129c.036.113.067.226.102.34q-.166-.177-.336-.352m-1.871-2.984q.022-.018.039-.036c.332.305.633.633.926.97l.035.226c-.238-.172-.477-.348-.719-.516a.3.3 0 0 0-.129-.058zm-2.309-9.825q.166-.454.348-.91c.008.016.02.031.027.051-.14.484-.3.965-.496 1.43-.02-.024-.035-.047-.054-.07l.175-.5m5.664 14.45a.3.3 0 0 0 .024-.106c.043.063.082.125.125.192a2 2 0 0 0-.117-.067.1.1 0 0 0-.032-.02m3.567-2.95-.024.082c-.109-.12-.222-.246-.336-.37q-.19-.383-.379-.77c.227.324.454.644.676.969q.03.046.063.09m-2.692-6.28q.2.656.375 1.323a15 15 0 0 0-.254-.25q-.17-.352-.351-.699l-.04-.066-.077-.793zm3.246 4.07q-.297-.272-.59-.544a9 9 0 0 0-.253-.543q.434.49.879.965zm-5.011-4.672q-.06-.093-.114-.184l-.14-.336q.029.046.05.086.099.216.204.434m-.637.601q-.346-.364-.687-.734.06-.2.113-.399c.133.243.265.48.406.72zm8.938 5.43c-.055.176-.114.347-.172.523l-.418-.52q.08-.215.156-.437zm-1.477-1.555-.11.27-.042-.07.086-.278zm-9.137-6.82a20 20 0 0 1-.195.855q-.07-.07-.145-.14.155-.394.286-.793c.02.027.035.05.054.078m3.297 7.512v.027l-.058-.102q.03.037.058.075m2.664 3.617q-.099-.24-.203-.48.093.11.18.222c.086.121.168.238.25.363-.016.059-.035.113-.055.172l-.129-.176c-.015-.035-.027-.066-.043-.101m3.742-1.907c.016.024.036.043.051.067l-.055-.05zm-10.593-6.168a.4.4 0 0 0-.13-.046l.106-.754q.11.17.215.34c-.055.16-.105.32-.16.476-.012-.004-.024-.012-.031-.015m3.035 2.399q-.016.017-.031.039l-.247-.426q.136.194.278.387m6.847 5.644q.199-.54.403-1.082.011.013.023.02c.133.11.266.215.399.324-.2.363-.391.727-.582 1.094q-.124-.174-.243-.356m-7.902-5.378-.023-.012q.001-.007-.004-.02zm1.188 2.183q.262.223.53.445.135.258.263.516c.195.402.406.793.625 1.18-.23-.293-.457-.586-.665-.899-.261-.402-.511-.82-.753-1.242m5.093 5.024.004-.012.024.031s-.004.004-.004.008c-.008-.008-.016-.02-.024-.027m2.465-7.758-.133-.227a.4.4 0 0 0 .114-.054l.093.113zm-13.039-3.758-.012-.012c.008-.008.012-.023.02-.035a.2.2 0 0 0-.008.047m-.613.988c.015-.023.035-.047.05-.074q.147.194.282.398-.07.114-.145.227-.117-.183-.234-.371zm1.535 2.29.098.171-.118-.125q.007-.023.02-.047m10.672 8.23-.043-.051.14-.39.153.152c-.063.125-.121.25-.184.375zm2.887-7.7.175-.382.02.015-.188.375q0-.004-.007-.007m-11.301-8.613q-.03.194-.067.387l-.07-.074q.035-.219.063-.43.036.06.074.117m-4.406 4.817.043.058-.04.153-.093-.153q.034-.053.062-.105zm4.367 3.257q.024-.033.043-.074l.023.02.074.285q-.029-.024-.05-.047c-.032-.062-.059-.121-.09-.183m10.402-.632q-.024.046-.043.093l-.094-.09q.068.013.137-.003m-16.531-2.934.414.54-.012.054a30 30 0 0 1-.426-.555zm13.926 13.262q.03.023.054.047c-.03.07-.066.14-.097.215a.3.3 0 0 0-.051-.051zm-8.258-8.235-.149-.539q.06-.075.114-.152.292.585.597 1.16c-.183-.16-.375-.316-.562-.469m15.047-2.691q-.146.316-.285.637a7 7 0 0 0 .152-.989 65 65 0 0 0 1.476-2.96c-.015.046-.035.093-.05.14a37 37 0 0 1-1.293 3.172m2.55-7.918c-.066.14-.128.281-.195.422q-.166.292-.324.586c-.41.754-.727 1.55-1.09 2.328.149-.367.3-.73.48-1.09.419-.844.727-1.726 1.079-2.598a.1.1 0 0 0 .035.016c.004.113.012.227.015.336m-2.09 2.156q-.023.048-.042.094c-.47 1.04-1.067 2.008-1.543 3.043q.036-.134.066-.273a.4.4 0 0 0-.031-.25q.726-1.266 1.476-2.52l.098-.148q-.012.024-.023.054m-21.992.211v.055a3 3 0 0 1-.09.144l-.042-.058.07-.227q.032.04.062.086m3.004 6.797.18.375q-.116-.157-.238-.316zm11.254 10.817q.116.1.239.203l-.083.207q-.1-.141-.207-.282c.016-.043.036-.086.051-.128m2.946-.286c-.043-.054-.086-.113-.13-.168l.157-.355a.3.3 0 0 0 .215.043zm.207-12.882q.034-.177.062-.352c.125-.219.254-.441.383-.656zm-1.66-1.336-.079-.086c.032.011.063.015.094.02-.004.023-.012.042-.016.066m-4.055-3.254q.173.188.347.386.035.117.075.23a162 162 0 0 0-.778-.921c-.105-.144-.21-.293-.32-.434zm-11.297 4.761a1 1 0 0 1 .05.079c-.019.007-.038.02-.058.027a1 1 0 0 0 .008-.106m16.324 13.332q.011.007.016.008.065.04.14.043-.152.322-.293.645l-.113-.117zm-1.23-13.949a.3.3 0 0 0-.028.133c-.37-.45-.73-.906-1.074-1.383q.54.634 1.102 1.25m-17.25-2.648q-.06.285-.114.57c-.007.031-.011.07-.02.106l-.148-.192q-.119-.156-.238-.32a1.8 1.8 0 0 0 .445-.285q.037.064.075.12m1.062 2.16q.004-.246.02-.492c.105.156.21.316.316.472a1 1 0 0 1-.226.157zm1.598 1.828.058.086q-.017.088-.027.176l-.008.074-.199-.25c.059-.023.117-.055.176-.086m16.105-2.484a.4.4 0 0 0-.12.18q-.041.111-.075.222-.03.066-.066.133l-.235.55-.062-.07c.007-.02.011-.039.02-.062.155-.305.312-.613.476-.914.078-.149.168-.293.254-.434q-.093.195-.192.395m-15.09-4.125-.035.289q-.223.643-.488 1.27c-.04-.051-.078-.106-.117-.157.164-.5.375-.98.59-1.46.015.019.035.038.05.058m-1.097-.383c.011-.281.027-.563.039-.844l.187.23q-.104.31-.226.614m-1.922.45-.05-.071a.42.42 0 0 0-.27-.168q.092-.148.18-.3.11.15.214.304zm-1.152 1.765c-.012.011-.024.027-.036.035a.1.1 0 0 1-.023.02l.016-.122q.02.036.043.067m7.628 9.469c.364.421.727.851 1.094 1.277q-.001.005.004.015c-.34-.335-.668-.683-.988-1.035q-.054-.13-.11-.257m7.653 8.625-.016.039q-.088-.103-.183-.207.099.086.199.168m3.773-17.63q-.074.182-.144.368a.44.44 0 0 0-.25-.055c.422-.781.855-1.558 1.289-2.332-.32.664-.614 1.34-.895 2.02m-11.281-6.39q.046.2.059.406c-.11-.11-.223-.21-.332-.324l-.063-.066q.03-.064.066-.133zm19.844 2.684c-.016.02-.035.035-.051.054l.047-.172q-.001.06.004.118m-21.68-2.207c.086-.13.207-.215.3-.329a.1.1 0 0 1 .032-.03l.024.03q.004.043.003.09-.152.268-.293.547l-.035.074-.117-.129.024-.156q.029-.048.062-.097m-4.164 1.921q-.121.305-.23.602-.048-.058-.094-.121c.226-.39.441-.793.629-1.2q-.159.357-.305.72m24.633-2.363a2 2 0 0 1-.012-.2q.192-.256.344-.538c0 .008-.004.02-.008.027-.129.23-.234.469-.324.711m-22.809 2.113a2 2 0 0 1-.09-.105q.106-.21.22-.41-.06.258-.13.515m-1.242-1.086-.02.012q.093-.248.172-.496-.021.135-.05.27c-.036.07-.067.144-.102.214m13.402 23.696q.001-.018-.004-.035a.37.37 0 0 0 .168-.176l.223.176q-.057.135-.113.277-.134-.124-.274-.242m13.914-24.258a7 7 0 0 0 .23-1.414c.016.441-.023.875-.105 1.297q-.065.058-.125.117m-.582-1.074a6.2 6.2 0 0 1-.632 2.062 6.6 6.6 0 0 1 .289-1.222c.125-.258.234-.528.324-.801a.2.2 0 0 0 .02-.04m-23.914.554q.001-.001-.004-.003a.32.32 0 0 0-.289-.114c.106-.12.223-.234.348-.332q-.024.225-.055.45m-1.132-.554q.052-.07.109-.133a6 6 0 0 1-.04.285 10 10 0 0 0-.624.918q.127-.272.265-.543c.09-.172.176-.367.29-.527m-2.012.054c-.078.07-.153.149-.223.227l-.02-.012q.133-.187.278-.363c-.008.047-.024.098-.035.148m4.492 16.196q.074-.03.148-.063.089.105.184.211c-.043.07-.082.137-.105.203q-.064-.044-.122-.09-.053-.127-.105-.261m11.664-11.617q-.335.867-.629 1.746v-.004q.208-.868.457-1.723.089.011.172-.02m-11.594-4.95-.25-.27q.187.037.375.079a.5.5 0 0 0-.125.191m-1.636-.34a.4.4 0 0 0-.051-.113l.215.016q-.083.046-.164.097m-1.723.461a.9.9 0 0 0-.336-.109 1.2 1.2 0 0 0-.031-.285l-.024-.055a6 6 0 0 1 .809-.101c-.164.152-.3.343-.418.55m-4.399 3.77c-.105.32-.183.652-.253.984a.13.13 0 0 1-.055-.047c-.035-.066.2-.617.219-.687l.082-.234zm-.597 1.691a.4.4 0 0 0-.13.278q-.03-.136-.054-.266c-.008-.047-.012-.098-.02-.144a1 1 0 0 0 .204.132m18.62 20.575.005.003a.32.32 0 0 0 .242.063l-.21.52q-.114-.125-.227-.243.095-.175.19-.343m5.638-5.696c.093-.187.195-.37.296-.554a26 26 0 0 1-.238.464zm7.148-16.148-.035.078a.43.43 0 0 0-.406-.043c.367-.457.675-.96.91-1.492l-.078.402-.012.047a6 6 0 0 1-.379 1.008m-1.172-6.672c.11.102.133.328.133.55q-.072.04-.145.087a3.2 3.2 0 0 0-.144-.668c.062-.012.121-.004.156.031m-27.691 3.031q-.335.498-.617 1.02-.03.03-.059.066.186-.422.332-.863.047-.065.102-.129a.4.4 0 0 0 .062-.418c.027-.098.059-.2.082-.3.008-.024.008-.048.012-.071.11-.043.215-.09.324-.137a2 2 0 0 0-.285.5c-.047.137-.02.25.047.332m11.672 23.32c.043.04.093.079.136.118.04.043.075.082.11.125q-.181-.164-.356-.332.051.044.11.09m12.422-5.976q.124-.223.253-.445-.111.235-.234.464-.01-.012-.02-.019m5.09-19.758a.8.8 0 0 0-.329.09.7.7 0 0 0-.273-.219v-.039a2.4 2.4 0 0 0-.113-.625c.27.238.511.504.714.793m-1.657-1.484c.024.015.047.035.074.05a1.4 1.4 0 0 0-.523.126 1 1 0 0 0-.387-.168 1.4 1.4 0 0 0-.555-.48 3.7 3.7 0 0 1 1.391.472m-2.469-.516a2 2 0 0 0-.226.106c-.164.09-.305.207-.438.336a1 1 0 0 0-.144.062.6.6 0 0 0-.11-.078c-.25-.149-.488-.117-.707-.012-.004-.015-.004-.035-.007-.05 0-.028-.012-.051-.016-.075a6.3 6.3 0 0 1 1.648-.289m-26.882 5.074q.137-.195.296-.379a18 18 0 0 0-.882 1.907q-.049.11-.09.226c.125-.617.297-1.203.676-1.754m19.191 27.871a.4.4 0 0 0 .336-.18c.293-.437.574-.882.855-1.327q-.21.405-.422.808-.17.339-.347.676-.07.142-.145.285a9 9 0 0 0-.277-.262m3.379-5.222c.176-.332.348-.668.527-.996q.295-.551.594-1.102a.3.3 0 0 0 .105-.015l-.28.539a28 28 0 0 1-.946 1.574m1.492-2.61a.5.5 0 0 0-.043-.093c.106-.203.215-.407.317-.61q.134-.2.261-.406s.004-.004.004-.008c.008.012.02.02.027.028zm1.727-1.07q-.094-.1-.188-.207.152-.293.32-.574.04-.067.086-.133c.051.05.106.106.16.156q-.179.394-.359.782c-.008-.008-.012-.016-.02-.024m.746-1.558a1 1 0 0 0-.063-.075q.087-.13.16-.265c.426-.766.676-1.614 1.09-2.387.09-.164.172-.328.258-.496q-.051.123-.098.246c-.418 1.004-.894 1.984-1.347 2.977m2.824-8.215c-.008.015-.016.035-.027.05.074-.152.152-.308.23-.46q.253-.474.488-.946c-.035.09-.066.18-.105.27-.156.383-.375.73-.586 1.086m1.492-3.45q.189-.654.29-1.328.146-.356.277-.73c.18-.54.328-1.09.43-1.645a9 9 0 0 0 .218-1.144 8 8 0 0 1-.098 1.043c-.207 1.297-.648 2.566-1.117 3.804m20.32 31.192c1.707-1.567 3.403-3.211 4.86-5.02 1.488-1.843 2.305-4.316 1.832-6.675-.211-1.067-.766-2.082-1.578-2.809-.844-.762-1.985-1.043-3.098-.887-1.285.18-2.46.852-3.5 1.61-.555.406-1.09.847-1.59 1.32a13 13 0 0 0-.828.879c-.25-1.035-.566-2.055-1.078-2.996a8.3 8.3 0 0 0-2.398-2.73c-1.055-.75-2.207-1.04-3.489-.966-1.16.07-2.32.516-3.082 1.434-.367.445-.68.95-.894 1.488-.235.598-.278 1.239-.243 1.871.075 1.293.239 2.582.57 3.832.337 1.27.712 2.559 1.282 3.743.547 1.136 1.11 2.25 1.777 3.32.754 1.207 1.579 2.363 2.356 3.555.496.765 1.078 1.476 1.668 2.18-.125.277.18.577.453.53.176.212.355.422.527.633.176.215.418.141.551-.027 1.07-.527 2.094-1.207 3.05-1.918a34 34 0 0 0 2.852-2.367m4.82-12.953q.055.247.09.5a4 4 0 0 0-.163-.406q.036-.048.074-.094m-8.722 12.008.23-.418.04.058c-.051.067-.098.125-.145.192-.02.023-.031.046-.043.07zm-6.312-14.356-.164.277q-.049-.033-.09-.066.059-.282.105-.57l.14-.254c.012.203.012.41.009.613m2.488 8.125c-.008.024-.02.047-.027.07q-.006-.005-.012-.02.02-.021.039-.05m.68 1.04c-.02.116-.036.245-.059.374-.027-.058-.059-.117-.086-.18q.073-.1.145-.195m.546 1.464c-.027-.043-.05-.09-.078-.137q.031-.064.055-.133c.016-.046.027-.093.043-.144q.03.091.055.184a4 4 0 0 1-.075.23m-.14-7.098-.082-.14a.34.34 0 0 0-.156-.149l.035-.222c.066.152.132.3.203.453zm-3.977 3.84-.082.219.024-.14q.03-.043.058-.079m.406 1.098c.083-.16.149-.332.215-.504q.023.257.051.508l-.031.082a1 1 0 0 1-.043.097c-.063-.062-.125-.12-.192-.183m4.153-.504.035-.035c.05.066.105.133.156.199l-.023.188c-.059-.118-.11-.235-.168-.352m1.183.277q.252.45.516.895-.059.073-.117.148zm3.762 1.875c-.144.164-.293.325-.437.489a.5.5 0 0 0-.016-.13q.23-.176.453-.359m-6.953.492q.031.082.055.157a.6.6 0 0 1-.14-.032c.026-.043.058-.082.085-.125m2.75-1.12-.008-.024.031-.133.254.668-.004.004zm1.371.843-.07.152a1 1 0 0 1-.04-.097c.036-.02.075-.035.11-.055m-3.812 1.215c.039.133.082.266.117.402a13 13 0 0 0-.203-.398q.042.001.086-.004m1.398 2.48q.036.099.07.204l-.129.164a9 9 0 0 0-.078-.79q.071.212.137.422m.613-.632q.023.034.051.07l-.02.023-.03-.093m.512-1.887c.024-.027.043-.055.066-.082.118.207.23.414.348.621l-.035.066-.106.18a63 63 0 0 1-.273-.785m3.227-.484q.01-.022.023-.043a.4.4 0 0 0 .098 0q-.146.163-.285.328.081-.146.164-.285m4.62-7.13q-.005.007-.011.012a6 6 0 0 0 .031-.222l.016-.106q.02-.089.027-.18c.031-.164.07-.328.14-.476.044-.098.114-.203.2-.293-.055.332-.176.668-.285.969a8 8 0 0 1-.117.297m-5.859 7.688.024-.012q-.116.195-.227.395l-.039-.098q.118-.145.242-.285m-2.16 2.84q.093-.141.192-.281.064.094.132.187a.4.4 0 0 0 .215.153q-.17.304-.347.597a10 10 0 0 0-.192-.656m2.047-9.25q.001-.002.008-.004c-.11.133-.215.266-.324.395l-.016-.184q.164-.1.332-.207m-8.55-1.523c.003.011.011.02.015.027l-.035.094c-.059.144-.106.289-.156.433l.082-.41.093-.144m5.94 11.578q.03.104.048.214-.053-.074-.098-.144zm1.739-1.899q-.118.21-.23.422l-.153-.45.297-.401q.087.144.168.285zm-2.164 2.793q.13.186.266.367c-.04.055-.075.11-.114.164a14 14 0 0 0-.18-.425c.012-.036.024-.067.028-.106m4.55-1.637-.008.008c.005-.004.005-.008.009-.008m3.528-2.39a55 55 0 0 0 1.906-2.387.32.32 0 0 0 .043-.316c.293-.364.82-.965.989-1.528a1 1 0 0 0 .16-.113c-.164.32-.328.637-.512.945-.797 1.336-1.77 2.547-2.797 3.707q-.152.17-.316.34.27-.322.527-.648m4.047-8.969c.129.399.195.832.191 1.285-.007.707-.195 1.328-.472 1.953a9.1 9.1 0 0 0 .28-3.238m-1.336-1.504-.023-.082a1.3 1.3 0 0 0-.114-.219q.135.077.258.164c-.039.047-.082.09-.121.137m-1.645-.531-.086.004-.042-.047a1 1 0 0 0-.348-.195c.3-.024.61-.008.918.058-.149.031-.3.094-.442.18m-12.062 11.316.023-.035c.305.445.586.903.832 1.395q.372.749.743 1.504a.1.1 0 0 1-.032-.016c-.496-.691-.855-1.434-1.242-2.191q-.166-.33-.324-.657m4.582 4.75-.02.032a.354.354 0 0 0 .047.453c-.058.047-.113.101-.172.152-.097.082-.656.66-.757.621-.09-.039.648-.95.902-1.258m-3.074-18.449c-.063-.058-.121-.117-.184-.176.07.047.145.094.215.145q-.016.019-.031.031m-6.438 3.293a.75.75 0 0 0 .106.422c.086.14.215.234.355.285l-.047.215a.42.42 0 0 0-.379.105c-.043-.316-.082-.64-.105-.96q.035-.037.07-.067m6.778 14.887c.191.238.394.472.597.699q-.054.083-.11.164-.356-.435-.702-.875.1.04.215.012m1.058 1.55v.005h-.004c.004 0 .004-.004.004-.004m-3.793-20.648a.3.3 0 0 0-.066.059c-.031.043-.059.086-.094.125a.42.42 0 0 0-.559-.012q-.074.074-.156.148.005-.018.004-.03a.34.34 0 0 0-.07-.24c.308-.046.625-.065.941-.05m-1.676.219q-.315.516-.586 1.055a6 6 0 0 0 .172-.739.5.5 0 0 0-.004-.156 4 4 0 0 1 .375-.148zm3.32 17.656c.094.067.184.133.282.192.121.16.242.316.367.476a.4.4 0 0 0-.023.223c-.047-.063-.098-.121-.145-.184a10 10 0 0 1-.48-.707m14.247-5.734a29.6 29.6 0 0 1-6.703 7.375c-.399.312.16.867.55.558a30.3 30.3 0 0 0 6.829-7.535c.273-.43-.403-.824-.676-.398m-17.18-39.09c.399.937.883 1.785 1.508 2.59.605.781 1.195 1.574 1.89 2.273q.759.763 1.575 1.473c.226.414.457.828.722 1.223.196.285.579.187.704-.04a.38.38 0 0 0 .265-.097c.719-.633 1.453-1.246 2.176-1.871q.304-.265.598-.535c.187.136.48.148.586-.098q.153-.368.312-.73.252-.229.516-.446c1.34-1.113 2.62-2.383 3.582-3.855a8.6 8.6 0 0 0 1.074-2.371c.191-.704.242-1.52-.203-2.141a1.7 1.7 0 0 0-.39-.383q.01-.034.023-.062c.175-.438-.48-.653-.715-.305l-.024.039a2.6 2.6 0 0 0-.668-.078c-.828.02-1.554.445-2.203.926-.761.566-1.472 1.172-2.07 1.918-.344.433-.648.882-.93 1.347a20 20 0 0 0-.687-1.613c-.367-.754-.73-1.512-1.125-2.25-.332-.61-.73-1.172-1.137-1.73.02-.18-.101-.305-.262-.356q-.01-.017-.027-.035a.46.46 0 0 0-.32-.172l-.176-.187a.36.36 0 0 0-.25-.254c-.805-.766-1.79-1.297-2.922-1.121-.941.144-1.469.882-1.773 1.734a5 5 0 0 0-.22.844c-.202-.012-.429.113-.456.375-.113 1.062-.094 2.086.129 3.129.215.984.504 1.937.898 2.859m3.02.457q-.134-.223-.262-.453.142-.2.285-.406l.145.261q-.089.302-.164.602-.005-.002-.004-.004m1.632 2.605a.6.6 0 0 0 .07-.085q.043-.078.09-.149.019.04.044.086a4 4 0 0 1-.063.2.4.4 0 0 0-.113-.005c-.008-.015-.02-.03-.027-.047m4.708-3.585q.035-.03.066-.06-.192.269-.383.532l-.082-.117a.42.42 0 0 0-.137-.246c.02-.024.04-.043.063-.067.133.09.312.098.473-.042m-3.7.347a.06.06 0 0 0 .024.031 3 3 0 0 0-.086.141c.02-.059.039-.113.062-.172m.285-2.851c.016-.036.036-.075.051-.11l.012.016c-.004.008-.004.008-.008.012a1 1 0 0 0-.055.082m-.5-.774q-.029.061-.062.121a1 1 0 0 0-.09-.101q.052-.13.106-.254l.105.152a1 1 0 0 0-.059.082m.727 5.195c.113-.351.25-.69.39-1.027q.04.06.087.113-.233.494-.497.97zm.563-3.289q.001-.002-.004-.004c-.075-.132-.16-.257-.243-.382a.2.2 0 0 1 .02-.047l.25.402zm-1.899-2.902c-.074.129-.148.262-.223.39-.046-.066-.086-.136-.132-.202q.066-.187.136-.368l.024-.062zm-2.558 1.59a3 3 0 0 0-.145-.18l.48-.808c-.117.328-.226.656-.336.988m-1.973-1.184-.035.102a.35.35 0 0 0 .066.332q-.016.103-.02.207a7 7 0 0 1-.132-.672q.058.024.12.031m1.41 1.73q.134.179.262.368l-.164.484q-.134-.282-.262-.558zm2.36 4.598q.058-.128.124-.257c.012.027.028.05.04.074-.044.16-.083.324-.126.484l-.117-.191a.4.4 0 0 0 .078-.11m.25-8.464-.036-.028.047-.129.047.063zm2.894 7.703q.081.082.156.172c-.195.343-.39.691-.59 1.03q-.053.09-.105.173.258-.693.539-1.375m-4.207-7.524c-.074.117-.145.239-.219.356l.188-.485q.016.064.03.13m2.36 11.801a.43.43 0 0 0 .366-.172q.212-.275.41-.55c-.136.417-.269.835-.39 1.253-.059-.05-.117-.105-.18-.156q-.1-.188-.207-.375m2.66-3.465a3 3 0 0 0 .128.11q-.34.648-.699 1.285c.184-.469.371-.934.57-1.395m-.282 3.352c.027.02.05.035.078.047l-.172.148q.048-.094.094-.195m2.035-2.258c.5-.82.84-1.695 1.223-2.57.144-.336.305-.668.469-.996a47 47 0 0 0-1.075 2.503c-.226.57-.476 1.137-.718 1.704-.27.242-.531.488-.801.734a19 19 0 0 0 .902-1.375m-6.23-10.27q-.04-.035-.086-.066a.3.3 0 0 0-.164-.062c.035-.086.066-.172.101-.258q-.001-.006.004-.012.136.1.266.21zm-.95 9.922c-.374-.488-.773-.965-1.105-1.488-.574-.906-.996-1.934-1.3-2.969.074.16.152.325.23.485.469.918.95 1.804 1.59 2.613.593.758 1.015 1.61 1.48 2.445-.308-.351-.61-.715-.894-1.086m3.856 3.828q-.041-.035-.082-.066a.4.4 0 0 0 .05-.059l.263-.375a.4.4 0 0 0 .144.176c-.125.11-.25.215-.375.324m5.094-5.16c.004.176.148.309.316.352q-.392.396-.808.77zm1.531-5.957a10 10 0 0 0-1.086 1.422l-.023-.016c.32-.414.61-.851.851-1.32.059-.023.114-.047.172-.062zm0 0"/></g></svg>