<svg xmlns="http://www.w3.org/2000/svg" xmlns:xlink="http://www.w3.org/1999/xlink" width="500" zoomAndPan="magnify" viewBox="0 0 375 374.999991" height="500" preserveAspectRatio="xMidYMid meet" version="1.0"><defs><g/><clipPath id="e5ef7567fe"><path d="M 232 86 L 302 86 L 302 229 L 232 229 Z M 232 86 " clip-rule="nonzero"/></clipPath><clipPath id="bc8a0e87bf"><path d="M 189.871094 129.570312 L 289.824219 81.898438 L 337.496094 181.851562 L 237.542969 229.523438 Z M 189.871094 129.570312 " clip-rule="nonzero"/></clipPath><clipPath id="d101cc104e"><path d="M 189.871094 129.570312 L 289.824219 81.898438 L 337.496094 181.851562 L 237.542969 229.523438 Z M 189.871094 129.570312 " clip-rule="nonzero"/></clipPath><clipPath id="10a5b64dcb"><path d="M 233.324219 237.726562 L 293.628906 237.726562 L 293.628906 295.839844 L 233.324219 295.839844 Z M 233.324219 237.726562 " clip-rule="nonzero"/></clipPath></defs><g fill="#ffffff" fill-opacity="1"><g transform="translate(38.311478, 298.237231)"><g><path d="M 23.015625 0 L 23.015625 -233.40625 L 174.828125 -233.40625 L 174.828125 -197.96875 L 65.296875 -197.96875 L 65.296875 -134.59375 L 166.96875 -134.59375 L 166.96875 -99.15625 L 65.296875 -99.15625 L 65.296875 -35.4375 L 175.734375 -35.4375 L 175.734375 0 Z M 23.015625 0 "/></g></g></g><g clip-path="url(#e5ef7567fe)"><g clip-path="url(#bc8a0e87bf)"><g clip-path="url(#d101cc104e)"><path fill="#ffffff" d="M 287.527344 87.617188 C 285.875 87.046875 284.175781 86.808594 282.433594 86.910156 C 280.6875 87.011719 279.027344 87.441406 277.453125 88.199219 C 275.875 88.941406 274.5 89.957031 273.324219 91.25 C 272.152344 92.542969 271.269531 94.007812 270.683594 95.652344 L 268.554688 101.417969 L 233.039062 201.136719 C 233.003906 201.253906 232.984375 201.375 232.980469 201.5 C 232.988281 201.667969 233.015625 201.832031 233.066406 201.988281 L 236.566406 227.035156 C 236.613281 227.382812 236.75 227.691406 236.972656 227.964844 C 237.191406 228.238281 237.46875 228.4375 237.796875 228.558594 C 238.28125 228.726562 238.757812 228.703125 239.222656 228.488281 C 239.394531 228.4375 239.554688 228.359375 239.707031 228.261719 L 258.355469 211.042969 C 258.4375 210.949219 258.507812 210.84375 258.566406 210.734375 C 258.640625 210.644531 258.699219 210.546875 258.742188 210.4375 L 283.90625 140.027344 C 284.230469 141.105469 284.878906 141.929688 285.847656 142.5 C 286.507812 142.859375 287.214844 143.046875 287.96875 143.058594 C 288.71875 143.074219 289.433594 142.914062 290.109375 142.578125 C 290.808594 142.257812 291.363281 141.773438 291.78125 141.128906 C 292.089844 140.664062 292.34375 139.824219 292.191406 136.941406 C 292.222656 136.796875 292.238281 136.652344 292.238281 136.503906 C 292.234375 136.359375 292.214844 136.214844 292.179688 136.070312 C 292.144531 135.929688 292.09375 135.792969 292.027344 135.660156 C 291.960938 135.53125 291.882812 135.410156 291.785156 135.296875 C 291.691406 135.183594 291.585938 135.085938 291.46875 134.996094 C 291.351562 134.910156 291.222656 134.835938 291.089844 134.777344 C 290.953125 134.71875 290.816406 134.675781 290.671875 134.652344 C 290.527344 134.625 290.378906 134.617188 290.234375 134.625 C 290.085938 134.632812 289.941406 134.65625 289.800781 134.695312 C 289.660156 134.738281 289.527344 134.792969 289.398438 134.863281 C 289.269531 134.9375 289.152344 135.023438 289.042969 135.121094 C 288.933594 135.21875 288.839844 135.332031 288.757812 135.453125 C 288.675781 135.574219 288.605469 135.703125 288.554688 135.839844 C 288.5 135.976562 288.464844 136.117188 288.441406 136.261719 C 288.421875 136.40625 288.417969 136.554688 288.433594 136.699219 C 288.445312 136.847656 288.476562 136.988281 288.523438 137.128906 C 288.566406 137.832031 288.566406 138.539062 288.515625 139.242188 C 288.257812 139.359375 287.996094 139.382812 287.722656 139.304688 C 287.722656 139.304688 287.546875 139.199219 287.3125 138.445312 C 286.816406 136.210938 290.820312 131.320312 294.015625 127.390625 C 297.488281 123.117188 300.765625 119.101562 301.558594 115.578125 C 301.859375 114.507812 301.921875 113.417969 301.75 112.320312 C 301.574219 111.21875 301.175781 110.203125 300.558594 109.277344 C 299.398438 107.730469 297.898438 106.667969 296.058594 106.082031 L 296.460938 104.894531 C 296.761719 104.078125 296.976562 103.238281 297.109375 102.375 C 297.242188 101.511719 297.285156 100.648438 297.246094 99.777344 C 297.207031 98.90625 297.082031 98.046875 296.875 97.199219 C 296.664062 96.355469 296.375 95.535156 296.003906 94.746094 C 295.632812 93.957031 295.1875 93.214844 294.667969 92.511719 C 294.148438 91.8125 293.566406 91.167969 292.921875 90.585938 C 292.273438 90 291.578125 89.484375 290.828125 89.035156 C 290.082031 88.589844 289.296875 88.21875 288.472656 87.925781 Z M 239.777344 223.050781 L 237.042969 204.527344 L 253.625 210.429688 Z M 256.019531 207.386719 L 237.132812 200.640625 L 271.46875 104.378906 L 290.351562 111.125 Z M 297.941406 114.726562 C 297.339844 117.402344 294.195312 121.265625 291.144531 125.003906 C 289.957031 126.457031 288.78125 127.882812 287.738281 129.285156 L 293.847656 112.121094 L 294.746094 109.578125 C 295.859375 109.871094 296.785156 110.457031 297.527344 111.335938 C 297.839844 111.84375 298.035156 112.394531 298.105469 112.984375 C 298.179688 113.578125 298.125 114.160156 297.941406 114.726562 Z M 292.972656 103.601562 L 291.558594 107.679688 L 272.640625 100.949219 L 274.097656 96.875 C 274.511719 95.679688 275.136719 94.609375 275.976562 93.660156 C 276.816406 92.714844 277.808594 91.96875 278.945312 91.414062 C 280.097656 90.871094 281.308594 90.570312 282.582031 90.511719 C 283.855469 90.457031 285.089844 90.644531 286.285156 91.082031 L 287.199219 91.40625 C 287.789062 91.617188 288.355469 91.878906 288.894531 92.199219 C 289.433594 92.519531 289.9375 92.890625 290.402344 93.308594 C 290.867188 93.726562 291.289062 94.1875 291.664062 94.691406 C 292.039062 95.191406 292.359375 95.726562 292.632812 96.292969 C 292.902344 96.855469 293.113281 97.445312 293.265625 98.050781 C 293.421875 98.660156 293.515625 99.277344 293.546875 99.902344 C 293.578125 100.527344 293.550781 101.152344 293.460938 101.769531 C 293.367188 102.390625 293.21875 102.996094 293.007812 103.585938 Z M 292.972656 103.601562 " fill-opacity="1" fill-rule="nonzero"/></g></g></g><g clip-path="url(#10a5b64dcb)"><path fill="#ffffff" d="M 263.488281 248.535156 C 262.609375 248.417969 261.703125 248.488281 260.84375 248.699219 C 259.984375 248.90625 259.289062 249.328125 258.5625 249.808594 C 258.351562 249.917969 258.152344 250.070312 257.964844 250.238281 C 257.429688 250.65625 256.949219 251.117188 256.476562 251.628906 C 255.808594 252.355469 255.328125 253.15625 254.914062 254.046875 C 254.539062 254.859375 254.316406 255.71875 254.050781 256.566406 C 253.78125 257.21875 253.539062 257.886719 253.335938 258.566406 C 253.300781 258.6875 253.316406 258.789062 253.367188 258.867188 C 253.367188 258.878906 253.363281 258.886719 253.363281 258.894531 C 253.132812 258.335938 252.867188 257.800781 252.535156 257.277344 C 251.976562 256.394531 251.277344 255.746094 250.472656 255.09375 C 249.695312 254.457031 248.917969 253.84375 248.015625 253.394531 C 247.074219 252.925781 246.101562 252.554688 245.097656 252.253906 C 244.609375 252.109375 244.132812 251.917969 243.644531 251.765625 C 243.148438 251.609375 242.632812 251.539062 242.117188 251.488281 C 241.046875 251.382812 239.988281 251.363281 238.921875 251.519531 C 237.976562 251.660156 237.035156 252.078125 236.179688 252.496094 C 235.332031 252.910156 234.6875 253.632812 234.246094 254.460938 C 233.785156 255.328125 233.667969 256.398438 233.539062 257.363281 C 233.398438 258.386719 233.640625 259.449219 234.023438 260.402344 C 234.210938 260.863281 234.449219 261.296875 234.667969 261.746094 C 234.886719 262.195312 235.074219 262.664062 235.335938 263.097656 C 235.871094 263.992188 236.527344 264.816406 237.210938 265.605469 C 237.890625 266.386719 238.527344 267.203125 239.179688 268.007812 C 239.507812 268.410156 239.824219 268.828125 240.183594 269.207031 C 240.511719 269.554688 240.894531 269.847656 241.238281 270.179688 C 241.609375 270.542969 241.921875 270.960938 242.246094 271.363281 C 242.578125 271.773438 242.9375 272.152344 243.316406 272.515625 C 243.675781 272.859375 244.046875 273.195312 244.363281 273.578125 C 244.675781 273.960938 244.957031 274.375 245.296875 274.738281 C 245.640625 275.097656 246.035156 275.402344 246.40625 275.726562 C 246.777344 276.054688 247.117188 276.414062 247.457031 276.773438 C 247.824219 277.152344 248.1875 277.527344 248.589844 277.867188 C 248.992188 278.207031 249.40625 278.53125 249.78125 278.902344 C 250.511719 279.628906 251.226562 280.371094 251.96875 281.085938 C 252.253906 281.363281 252.566406 281.605469 252.878906 281.84375 C 252.90625 282.070312 253.113281 282.21875 253.335938 282.1875 C 253.652344 282.425781 253.964844 282.671875 254.25 282.945312 C 254.285156 282.980469 254.320312 283.015625 254.355469 283.050781 C 254.351562 283.234375 254.445312 283.40625 254.644531 283.492188 C 254.714844 283.519531 254.78125 283.53125 254.84375 283.53125 C 255 283.683594 255.15625 283.832031 255.320312 283.976562 C 255.703125 284.304688 256.261719 283.75 255.878906 283.417969 C 255.726562 283.289062 255.582031 283.15625 255.441406 283.023438 C 255.746094 282.480469 256.007812 281.90625 256.292969 281.359375 C 256.507812 280.941406 256.726562 280.527344 256.945312 280.113281 C 257.308594 279.53125 257.671875 278.949219 258.027344 278.359375 C 258.492188 277.59375 259 276.84375 259.445312 276.066406 C 259.863281 275.339844 260.242188 274.585938 260.632812 273.839844 C 260.636719 273.84375 260.644531 273.851562 260.648438 273.855469 C 260.738281 273.933594 260.832031 273.960938 260.921875 273.960938 C 260.199219 275.484375 259.453125 276.996094 258.6875 278.5 C 258.457031 278.953125 259.136719 279.351562 259.367188 278.898438 C 260.472656 276.726562 261.535156 274.542969 262.546875 272.324219 C 263.039062 271.246094 263.5625 270.179688 264.023438 269.085938 C 264.488281 267.984375 264.898438 266.855469 265.34375 265.75 C 265.480469 265.402344 265.113281 265.203125 264.832031 265.300781 C 264.988281 264.898438 265.15625 264.5 265.363281 264.128906 C 265.570312 263.757812 265.8125 263.410156 265.992188 263.023438 C 266.195312 262.585938 266.355469 262.128906 266.523438 261.679688 C 267.164062 259.996094 267.898438 258.28125 268.1875 256.492188 C 268.472656 254.726562 268.273438 252.820312 267.378906 251.246094 C 266.589844 249.863281 265.070312 248.75 263.488281 248.535156 Z M 252.550781 280.527344 C 252.640625 280.492188 252.71875 280.425781 252.769531 280.339844 C 252.898438 280.484375 253.023438 280.632812 253.140625 280.785156 C 253.121094 280.855469 253.101562 280.925781 253.078125 280.996094 C 252.898438 280.84375 252.722656 280.6875 252.550781 280.527344 Z M 265.03125 252.214844 C 265.019531 252.296875 265.007812 252.378906 264.992188 252.457031 C 264.988281 252.460938 264.984375 252.464844 264.980469 252.46875 C 264.984375 252.398438 264.988281 252.324219 264.988281 252.25 C 265.003906 252.238281 265.015625 252.226562 265.03125 252.214844 Z M 258.8125 254.828125 C 258.867188 254.773438 258.917969 254.722656 258.96875 254.667969 C 258.839844 254.886719 258.71875 255.109375 258.59375 255.332031 C 258.617188 255.269531 258.644531 255.203125 258.671875 255.144531 C 258.714844 255.039062 258.761719 254.9375 258.804688 254.832031 C 258.808594 254.828125 258.8125 254.828125 258.8125 254.828125 Z M 262.121094 250.503906 C 262.136719 250.53125 262.152344 250.5625 262.164062 250.597656 C 262.046875 250.738281 261.9375 250.882812 261.847656 251.035156 C 261.859375 250.953125 261.863281 250.875 261.867188 250.796875 C 261.945312 250.695312 262.03125 250.597656 262.121094 250.503906 Z M 260.042969 254.691406 C 260.164062 254.566406 260.273438 254.4375 260.378906 254.300781 C 260.171875 254.667969 259.960938 255.035156 259.75 255.402344 C 259.847656 255.164062 259.945312 254.925781 260.042969 254.691406 Z M 243.386719 255.101562 C 243.5 255.253906 243.613281 255.40625 243.726562 255.558594 C 243.683594 255.644531 243.632812 255.730469 243.59375 255.820312 C 243.554688 255.90625 243.519531 255.992188 243.480469 256.078125 C 243.421875 256.011719 243.363281 255.945312 243.304688 255.878906 C 243.3125 255.789062 243.328125 255.703125 243.335938 255.613281 C 243.355469 255.445312 243.371094 255.273438 243.386719 255.101562 Z M 261.171875 254.835938 C 261.175781 254.832031 261.179688 254.828125 261.183594 254.828125 C 261.074219 255.011719 260.96875 255.199219 260.863281 255.382812 C 260.9375 255.21875 261.015625 255.054688 261.09375 254.890625 C 261.121094 254.875 261.148438 254.859375 261.171875 254.835938 Z M 247.347656 271.886719 C 247.339844 271.878906 247.332031 271.867188 247.324219 271.859375 C 247.359375 271.835938 247.390625 271.804688 247.417969 271.769531 C 247.472656 271.8125 247.527344 271.855469 247.582031 271.898438 C 247.617188 272.011719 247.648438 272.125 247.683594 272.238281 C 247.574219 272.121094 247.460938 272.003906 247.347656 271.886719 Z M 245.460938 268.90625 C 245.476562 268.894531 245.488281 268.882812 245.5 268.871094 C 245.835938 269.175781 246.136719 269.503906 246.433594 269.839844 C 246.445312 269.914062 246.457031 269.992188 246.46875 270.066406 C 246.226562 269.890625 245.988281 269.71875 245.742188 269.550781 C 245.699219 269.519531 245.65625 269.5 245.613281 269.492188 C 245.566406 269.296875 245.511719 269.101562 245.460938 268.90625 Z M 243.136719 259.089844 C 243.246094 258.785156 243.367188 258.484375 243.484375 258.183594 C 243.496094 258.199219 243.503906 258.214844 243.515625 258.230469 C 243.375 258.714844 243.210938 259.195312 243.015625 259.660156 C 242.996094 259.636719 242.976562 259.613281 242.957031 259.589844 C 243.019531 259.421875 243.078125 259.257812 243.136719 259.089844 Z M 248.839844 273.523438 C 248.851562 273.492188 248.863281 273.460938 248.863281 273.421875 C 248.90625 273.484375 248.945312 273.546875 248.988281 273.609375 C 248.9375 273.582031 248.894531 273.558594 248.871094 273.546875 C 248.859375 273.539062 248.851562 273.53125 248.839844 273.523438 Z M 252.429688 270.582031 C 252.421875 270.609375 252.414062 270.636719 252.40625 270.664062 C 252.292969 270.539062 252.183594 270.414062 252.070312 270.292969 C 251.941406 270.035156 251.8125 269.78125 251.6875 269.523438 C 251.914062 269.847656 252.144531 270.167969 252.367188 270.492188 C 252.386719 270.523438 252.410156 270.550781 252.429688 270.582031 Z M 249.71875 264.304688 C 249.851562 264.742188 249.980469 265.183594 250.097656 265.625 C 250.011719 265.542969 249.925781 265.460938 249.839844 265.375 C 249.730469 265.144531 249.613281 264.910156 249.488281 264.679688 C 249.472656 264.65625 249.460938 264.636719 249.445312 264.613281 C 249.421875 264.347656 249.398438 264.085938 249.371094 263.820312 C 249.488281 263.980469 249.601562 264.144531 249.71875 264.304688 Z M 252.988281 268.371094 C 252.789062 268.191406 252.589844 268.011719 252.394531 267.828125 C 252.332031 267.683594 252.265625 267.535156 252.195312 267.394531 C 252.179688 267.355469 252.160156 267.320312 252.140625 267.285156 C 252.429688 267.609375 252.722656 267.933594 253.023438 268.25 C 253.011719 268.292969 253 268.332031 252.988281 268.371094 Z M 247.941406 263.703125 C 247.902344 263.640625 247.863281 263.582031 247.828125 263.519531 C 247.78125 263.410156 247.734375 263.296875 247.6875 263.1875 C 247.707031 263.214844 247.722656 263.242188 247.738281 263.269531 C 247.804688 263.414062 247.875 263.558594 247.941406 263.703125 Z M 247.300781 264.304688 C 247.070312 264.0625 246.839844 263.816406 246.609375 263.574219 C 246.648438 263.441406 246.6875 263.304688 246.722656 263.171875 C 246.855469 263.414062 246.992188 263.652344 247.128906 263.890625 C 247.1875 264.027344 247.246094 264.167969 247.300781 264.304688 Z M 256.300781 269.730469 C 256.246094 269.90625 256.1875 270.078125 256.125 270.253906 C 255.988281 270.078125 255.847656 269.90625 255.707031 269.734375 C 255.761719 269.589844 255.8125 269.441406 255.863281 269.296875 C 256.007812 269.441406 256.152344 269.585938 256.300781 269.730469 Z M 254.8125 268.175781 C 254.777344 268.265625 254.738281 268.355469 254.703125 268.445312 C 254.6875 268.421875 254.675781 268.398438 254.660156 268.375 C 254.6875 268.285156 254.71875 268.191406 254.746094 268.097656 C 254.769531 268.125 254.792969 268.148438 254.8125 268.175781 Z M 245.613281 261.363281 C 245.554688 261.648438 245.488281 261.933594 245.417969 262.21875 C 245.371094 262.171875 245.320312 262.125 245.273438 262.078125 C 245.375 261.8125 245.472656 261.550781 245.5625 261.28125 C 245.578125 261.308594 245.597656 261.335938 245.613281 261.363281 Z M 248.933594 268.867188 C 248.933594 268.875 248.933594 268.882812 248.933594 268.894531 C 248.914062 268.859375 248.894531 268.828125 248.875 268.792969 C 248.894531 268.816406 248.914062 268.84375 248.933594 268.867188 Z M 251.617188 272.484375 C 251.550781 272.320312 251.480469 272.160156 251.414062 272 C 251.472656 272.074219 251.535156 272.148438 251.59375 272.226562 C 251.679688 272.34375 251.761719 272.464844 251.84375 272.585938 C 251.828125 272.644531 251.808594 272.699219 251.789062 272.757812 C 251.746094 272.699219 251.703125 272.640625 251.65625 272.582031 C 251.644531 272.550781 251.628906 272.515625 251.617188 272.484375 Z M 255.382812 270.578125 C 255.402344 270.597656 255.417969 270.621094 255.4375 270.640625 C 255.417969 270.625 255.398438 270.609375 255.378906 270.59375 C 255.378906 270.585938 255.382812 270.582031 255.382812 270.578125 Z M 244.714844 264.414062 C 244.671875 264.390625 244.628906 264.375 244.589844 264.367188 C 244.625 264.117188 244.660156 263.863281 244.695312 263.613281 C 244.769531 263.726562 244.839844 263.839844 244.910156 263.953125 C 244.855469 264.113281 244.804688 264.273438 244.746094 264.429688 C 244.738281 264.425781 244.726562 264.417969 244.714844 264.414062 Z M 247.773438 266.808594 C 247.761719 266.820312 247.753906 266.835938 247.742188 266.847656 C 247.660156 266.707031 247.574219 266.566406 247.492188 266.421875 C 247.585938 266.554688 247.679688 266.683594 247.773438 266.808594 Z M 254.667969 272.449219 C 254.800781 272.089844 254.9375 271.730469 255.074219 271.371094 C 255.082031 271.375 255.089844 271.382812 255.097656 271.390625 C 255.230469 271.496094 255.363281 271.605469 255.496094 271.710938 C 255.296875 272.074219 255.101562 272.4375 254.910156 272.804688 C 254.832031 272.6875 254.75 272.570312 254.667969 272.449219 Z M 246.710938 267.078125 C 246.703125 267.074219 246.695312 267.066406 246.691406 267.0625 C 246.6875 267.058594 246.6875 267.050781 246.683594 267.046875 C 246.695312 267.054688 246.703125 267.066406 246.710938 267.078125 Z M 247.910156 269.253906 C 248.082031 269.40625 248.261719 269.554688 248.441406 269.699219 C 248.53125 269.871094 248.621094 270.046875 248.703125 270.21875 C 248.902344 270.621094 249.117188 271.007812 249.335938 271.398438 C 249.105469 271.101562 248.875 270.808594 248.667969 270.496094 C 248.402344 270.097656 248.148438 269.679688 247.910156 269.253906 Z M 253.035156 274.277344 C 253.035156 274.273438 253.039062 274.269531 253.039062 274.265625 C 253.046875 274.273438 253.054688 274.285156 253.0625 274.292969 C 253.0625 274.296875 253.0625 274.300781 253.058594 274.304688 C 253.050781 274.292969 253.042969 274.285156 253.035156 274.277344 Z M 255.515625 266.523438 C 255.472656 266.449219 255.429688 266.375 255.382812 266.296875 C 255.425781 266.285156 255.464844 266.265625 255.5 266.246094 C 255.53125 266.28125 255.5625 266.320312 255.59375 266.355469 C 255.566406 266.414062 255.542969 266.46875 255.515625 266.523438 Z M 242.386719 262.769531 C 242.386719 262.769531 242.382812 262.765625 242.378906 262.761719 C 242.386719 262.75 242.390625 262.738281 242.398438 262.726562 C 242.394531 262.742188 242.390625 262.757812 242.386719 262.769531 Z M 241.773438 263.761719 C 241.789062 263.734375 241.804688 263.710938 241.820312 263.683594 C 241.917969 263.816406 242.015625 263.945312 242.109375 264.082031 C 242.058594 264.15625 242.011719 264.234375 241.960938 264.308594 C 241.882812 264.1875 241.804688 264.0625 241.726562 263.9375 C 241.742188 263.878906 241.757812 263.820312 241.773438 263.761719 Z M 243.316406 266.042969 C 243.351562 266.101562 243.382812 266.160156 243.417969 266.214844 C 243.378906 266.175781 243.335938 266.132812 243.296875 266.09375 C 243.304688 266.078125 243.308594 266.058594 243.316406 266.042969 Z M 254.0625 274.269531 C 254.046875 274.25 254.03125 274.234375 254.019531 274.21875 C 254.066406 274.085938 254.113281 273.957031 254.160156 273.828125 C 254.210938 273.878906 254.261719 273.929688 254.3125 273.980469 C 254.25 274.105469 254.191406 274.230469 254.128906 274.355469 C 254.105469 274.328125 254.085938 274.296875 254.0625 274.269531 Z M 256.96875 266.578125 C 257.027344 266.449219 257.085938 266.320312 257.144531 266.191406 C 257.152344 266.199219 257.15625 266.203125 257.164062 266.210938 C 257.101562 266.335938 257.039062 266.460938 256.976562 266.585938 C 256.976562 266.582031 256.972656 266.578125 256.96875 266.578125 Z M 245.589844 257.972656 C 245.570312 258.101562 245.546875 258.230469 245.523438 258.355469 C 245.5 258.332031 245.476562 258.308594 245.453125 258.28125 C 245.476562 258.136719 245.496094 257.996094 245.515625 257.851562 C 245.542969 257.890625 245.566406 257.929688 245.589844 257.972656 Z M 241.15625 262.78125 C 241.167969 262.804688 241.183594 262.824219 241.199219 262.84375 C 241.183594 262.894531 241.171875 262.945312 241.15625 262.992188 C 241.128906 262.941406 241.097656 262.890625 241.066406 262.839844 C 241.085938 262.804688 241.105469 262.769531 241.125 262.734375 C 241.136719 262.75 241.144531 262.765625 241.15625 262.78125 Z M 245.550781 266.039062 C 245.566406 266.011719 245.582031 265.988281 245.59375 265.964844 C 245.601562 265.96875 245.609375 265.976562 245.617188 265.984375 C 245.644531 266.078125 245.667969 266.171875 245.691406 266.269531 C 245.675781 266.25 245.660156 266.234375 245.640625 266.21875 C 245.613281 266.160156 245.582031 266.097656 245.550781 266.039062 Z M 256.023438 265.40625 C 256.007812 265.4375 255.996094 265.46875 255.980469 265.5 C 255.949219 265.46875 255.917969 265.4375 255.886719 265.40625 C 255.933594 265.417969 255.980469 265.417969 256.023438 265.40625 Z M 239.382812 262.476562 C 239.519531 262.652344 239.660156 262.832031 239.796875 263.011719 C 239.792969 263.03125 239.792969 263.046875 239.789062 263.066406 C 239.640625 262.886719 239.496094 262.699219 239.359375 262.515625 C 239.367188 262.5 239.375 262.488281 239.382812 262.476562 Z M 253.402344 275.722656 C 253.421875 275.738281 253.4375 275.753906 253.457031 275.769531 C 253.425781 275.84375 253.390625 275.914062 253.359375 275.984375 C 253.34375 275.96875 253.324219 275.949219 253.308594 275.933594 C 253.339844 275.863281 253.371094 275.792969 253.402344 275.722656 Z M 245.085938 267.496094 C 245.035156 267.316406 244.988281 267.136719 244.9375 266.957031 C 244.976562 266.90625 245.015625 266.859375 245.054688 266.808594 C 245.25 267.195312 245.449219 267.582031 245.65625 267.964844 C 245.46875 267.804688 245.277344 267.648438 245.085938 267.496094 Z M 260.238281 264.808594 C 260.140625 265.019531 260.042969 265.230469 259.949219 265.441406 C 260.023438 265.113281 260.078125 264.785156 260.105469 264.453125 C 260.625 263.480469 261.125 262.5 261.589844 261.5 C 261.574219 261.546875 261.554688 261.589844 261.539062 261.636719 C 261.15625 262.710938 260.71875 263.773438 260.238281 264.808594 Z M 262.804688 256.898438 C 262.738281 257.039062 262.675781 257.179688 262.609375 257.320312 C 262.5 257.515625 262.390625 257.707031 262.28125 257.902344 C 261.867188 258.65625 261.550781 259.457031 261.183594 260.230469 C 261.332031 259.863281 261.488281 259.5 261.667969 259.140625 C 262.089844 258.300781 262.402344 257.414062 262.753906 256.546875 C 262.765625 256.550781 262.777344 256.558594 262.789062 256.5625 C 262.796875 256.675781 262.800781 256.785156 262.804688 256.898438 Z M 260.703125 259.050781 C 260.6875 259.082031 260.671875 259.113281 260.65625 259.148438 C 260.183594 260.183594 259.585938 261.152344 259.105469 262.1875 C 259.125 262.09375 259.148438 262.003906 259.171875 261.914062 C 259.191406 261.820312 259.175781 261.734375 259.140625 261.660156 C 259.625 260.816406 260.121094 259.980469 260.625 259.144531 C 260.65625 259.09375 260.691406 259.046875 260.722656 258.996094 C 260.714844 259.011719 260.707031 259.03125 260.703125 259.050781 Z M 238.558594 259.261719 C 238.558594 259.28125 238.558594 259.296875 238.558594 259.316406 C 238.53125 259.363281 238.5 259.414062 238.46875 259.460938 C 238.453125 259.441406 238.441406 259.421875 238.425781 259.402344 C 238.449219 259.324219 238.472656 259.25 238.496094 259.175781 C 238.515625 259.203125 238.539062 259.234375 238.558594 259.261719 Z M 241.582031 266.050781 C 241.644531 266.175781 241.703125 266.300781 241.765625 266.425781 C 241.6875 266.320312 241.605469 266.214844 241.527344 266.109375 C 241.542969 266.089844 241.5625 266.070312 241.582031 266.050781 Z M 252.914062 276.859375 C 252.992188 276.929688 253.074219 276.996094 253.152344 277.0625 C 253.128906 277.132812 253.101562 277.199219 253.074219 277.269531 C 253.003906 277.175781 252.933594 277.082031 252.863281 276.992188 C 252.878906 276.945312 252.898438 276.902344 252.914062 276.859375 Z M 255.878906 276.574219 C 255.835938 276.519531 255.792969 276.464844 255.75 276.40625 C 255.800781 276.289062 255.855469 276.171875 255.90625 276.054688 C 255.972656 276.09375 256.042969 276.109375 256.125 276.09375 C 256.042969 276.253906 255.960938 276.414062 255.878906 276.574219 Z M 256.085938 263.703125 C 256.109375 263.585938 256.132812 263.46875 256.152344 263.351562 C 256.277344 263.132812 256.40625 262.914062 256.535156 262.695312 C 256.386719 263.03125 256.238281 263.367188 256.085938 263.703125 Z M 254.417969 262.371094 C 254.390625 262.339844 254.363281 262.3125 254.335938 262.28125 C 254.367188 262.292969 254.402344 262.300781 254.433594 262.300781 C 254.425781 262.324219 254.421875 262.347656 254.417969 262.371094 Z M 250.332031 259.117188 C 250.453125 259.242188 250.566406 259.375 250.683594 259.503906 C 250.707031 259.582031 250.730469 259.65625 250.757812 259.734375 C 250.5 259.425781 250.238281 259.121094 249.976562 258.816406 C 249.871094 258.667969 249.765625 258.523438 249.652344 258.378906 C 249.882812 258.625 250.105469 258.875 250.332031 259.117188 Z M 238.960938 263.875 C 238.980469 263.902344 238.996094 263.925781 239.011719 263.953125 C 238.992188 263.960938 238.972656 263.972656 238.953125 263.980469 C 238.957031 263.945312 238.957031 263.910156 238.960938 263.875 Z M 255.398438 277.195312 C 255.402344 277.199219 255.40625 277.203125 255.410156 277.203125 C 255.457031 277.230469 255.503906 277.242188 255.550781 277.246094 C 255.449219 277.460938 255.355469 277.675781 255.257812 277.890625 C 255.21875 277.851562 255.179688 277.8125 255.144531 277.773438 C 255.226562 277.582031 255.3125 277.386719 255.398438 277.195312 Z M 254.15625 263.257812 C 254.136719 263.304688 254.128906 263.347656 254.128906 263.394531 C 253.753906 262.945312 253.390625 262.488281 253.046875 262.007812 C 253.410156 262.433594 253.777344 262.847656 254.15625 263.257812 Z M 236.789062 260.613281 C 236.75 260.800781 236.710938 260.992188 236.675781 261.179688 C 236.667969 261.214844 236.660156 261.25 236.65625 261.285156 C 236.605469 261.222656 236.554688 261.160156 236.507812 261.097656 C 236.425781 260.988281 236.34375 260.882812 236.265625 260.777344 C 236.425781 260.710938 236.574219 260.609375 236.714844 260.492188 C 236.738281 260.53125 236.765625 260.574219 236.789062 260.613281 Z M 237.859375 262.773438 C 237.863281 262.609375 237.867188 262.445312 237.878906 262.277344 C 237.984375 262.4375 238.089844 262.59375 238.195312 262.75 C 238.125 262.8125 238.050781 262.867188 237.96875 262.90625 C 237.933594 262.863281 237.898438 262.816406 237.859375 262.773438 Z M 239.464844 264.597656 C 239.484375 264.628906 239.503906 264.65625 239.523438 264.683594 C 239.515625 264.742188 239.507812 264.800781 239.5 264.859375 C 239.496094 264.882812 239.492188 264.90625 239.488281 264.933594 C 239.421875 264.851562 239.355469 264.769531 239.292969 264.683594 C 239.351562 264.660156 239.410156 264.628906 239.464844 264.597656 Z M 255.683594 262.113281 C 255.632812 262.15625 255.589844 262.214844 255.5625 262.292969 C 255.535156 262.367188 255.511719 262.441406 255.488281 262.515625 C 255.464844 262.5625 255.441406 262.605469 255.421875 262.652344 C 255.339844 262.832031 255.261719 263.015625 255.183594 263.199219 C 255.164062 263.175781 255.144531 263.152344 255.121094 263.128906 C 255.128906 263.109375 255.132812 263.089844 255.136719 263.070312 C 255.296875 262.761719 255.453125 262.457031 255.617188 262.152344 C 255.699219 262.007812 255.789062 261.863281 255.878906 261.722656 C 255.8125 261.851562 255.746094 261.984375 255.683594 262.113281 Z M 240.492188 257.996094 C 240.480469 258.089844 240.464844 258.1875 240.453125 258.28125 C 240.304688 258.710938 240.140625 259.132812 239.964844 259.550781 C 239.925781 259.5 239.886719 259.445312 239.847656 259.394531 C 240.011719 258.894531 240.222656 258.414062 240.4375 257.933594 C 240.457031 257.953125 240.472656 257.976562 240.492188 257.996094 Z M 239.386719 257.609375 C 239.398438 257.328125 239.410156 257.050781 239.425781 256.769531 C 239.488281 256.84375 239.550781 256.921875 239.613281 257 C 239.542969 257.203125 239.46875 257.410156 239.386719 257.609375 Z M 237.449219 258.058594 C 237.433594 258.035156 237.414062 258.011719 237.398438 257.988281 C 237.324219 257.890625 237.226562 257.839844 237.128906 257.824219 C 237.1875 257.722656 237.25 257.625 237.308594 257.523438 C 237.382812 257.625 237.453125 257.726562 237.527344 257.824219 C 237.5 257.902344 237.476562 257.980469 237.449219 258.058594 Z M 236.289062 259.824219 C 236.277344 259.835938 236.265625 259.851562 236.253906 259.859375 C 236.246094 259.867188 236.238281 259.875 236.230469 259.878906 C 236.234375 259.839844 236.242188 259.796875 236.246094 259.757812 C 236.261719 259.78125 236.277344 259.804688 236.289062 259.824219 Z M 243.96875 269.285156 C 244.339844 269.707031 244.703125 270.132812 245.070312 270.558594 C 245.070312 270.5625 245.074219 270.570312 245.074219 270.574219 C 244.734375 270.238281 244.40625 269.894531 244.082031 269.542969 C 244.042969 269.457031 244.007812 269.371094 243.96875 269.285156 Z M 251.671875 277.902344 C 251.667969 277.914062 251.664062 277.925781 251.660156 277.941406 C 251.597656 277.871094 251.539062 277.800781 251.476562 277.734375 C 251.539062 277.792969 251.609375 277.84375 251.671875 277.902344 Z M 255.476562 260.289062 C 255.425781 260.410156 255.375 260.53125 255.328125 260.652344 C 255.25 260.609375 255.160156 260.589844 255.074219 260.601562 C 255.503906 259.820312 255.9375 259.042969 256.375 258.269531 C 256.054688 258.933594 255.757812 259.609375 255.476562 260.289062 Z M 244.117188 253.902344 C 244.148438 254.035156 244.164062 254.171875 244.175781 254.308594 C 244.0625 254.203125 243.949219 254.097656 243.84375 253.988281 C 243.820312 253.964844 243.800781 253.941406 243.777344 253.917969 C 243.800781 253.875 243.820312 253.832031 243.84375 253.789062 C 243.933594 253.828125 244.027344 253.863281 244.117188 253.902344 Z M 264.09375 256.585938 C 264.078125 256.601562 264.0625 256.621094 264.042969 256.636719 C 264.058594 256.582031 264.074219 256.527344 264.089844 256.46875 C 264.09375 256.507812 264.09375 256.546875 264.09375 256.585938 Z M 242.265625 254.378906 C 242.351562 254.25 242.476562 254.167969 242.570312 254.050781 C 242.582031 254.035156 242.59375 254.027344 242.601562 254.019531 C 242.609375 254.03125 242.617188 254.039062 242.625 254.050781 C 242.628906 254.082031 242.628906 254.109375 242.628906 254.140625 C 242.527344 254.320312 242.429688 254.503906 242.335938 254.6875 C 242.324219 254.710938 242.3125 254.738281 242.300781 254.761719 C 242.257812 254.71875 242.21875 254.675781 242.179688 254.632812 C 242.1875 254.582031 242.195312 254.527344 242.203125 254.476562 C 242.226562 254.445312 242.246094 254.414062 242.265625 254.378906 Z M 238.074219 256.300781 C 237.996094 256.5 237.917969 256.703125 237.84375 256.902344 C 237.8125 256.863281 237.78125 256.820312 237.75 256.78125 C 237.976562 256.386719 238.191406 255.988281 238.382812 255.582031 C 238.277344 255.820312 238.171875 256.058594 238.074219 256.300781 Z M 262.875 253.941406 C 262.867188 253.875 262.867188 253.808594 262.863281 253.738281 C 262.996094 253.570312 263.109375 253.390625 263.210938 253.203125 C 263.207031 253.210938 263.207031 253.21875 263.203125 253.226562 C 263.074219 253.457031 262.964844 253.695312 262.875 253.941406 Z M 239.910156 256.050781 C 239.878906 256.015625 239.851562 255.980469 239.820312 255.945312 C 239.890625 255.804688 239.964844 255.667969 240.042969 255.535156 C 240 255.707031 239.957031 255.878906 239.910156 256.050781 Z M 238.660156 254.964844 C 238.65625 254.96875 238.648438 254.972656 238.640625 254.976562 C 238.703125 254.8125 238.761719 254.648438 238.816406 254.480469 C 238.796875 254.570312 238.78125 254.660156 238.761719 254.75 C 238.730469 254.820312 238.695312 254.894531 238.660156 254.964844 Z M 252.15625 278.640625 C 252.15625 278.628906 252.152344 278.617188 252.152344 278.605469 C 252.21875 278.566406 252.28125 278.511719 252.320312 278.429688 C 252.394531 278.488281 252.46875 278.546875 252.542969 278.601562 C 252.507812 278.695312 252.46875 278.789062 252.429688 278.878906 C 252.339844 278.796875 252.246094 278.71875 252.15625 278.640625 Z M 266.164062 254.402344 C 266.207031 254.234375 266.25 254.0625 266.28125 253.890625 C 266.339844 253.597656 266.378906 253.292969 266.394531 252.992188 C 266.410156 253.433594 266.375 253.867188 266.289062 254.289062 C 266.246094 254.324219 266.203125 254.363281 266.164062 254.402344 Z M 265.578125 253.328125 C 265.492188 254.039062 265.273438 254.75 264.941406 255.390625 C 265 254.976562 265.09375 254.566406 265.230469 254.167969 C 265.359375 253.910156 265.46875 253.644531 265.558594 253.367188 C 265.566406 253.355469 265.570312 253.34375 265.578125 253.328125 Z M 241.503906 253.882812 C 241.5 253.882812 241.5 253.882812 241.496094 253.878906 C 241.414062 253.785156 241.308594 253.757812 241.203125 253.765625 C 241.3125 253.644531 241.429688 253.53125 241.554688 253.433594 C 241.539062 253.585938 241.523438 253.734375 241.503906 253.882812 Z M 240.363281 253.328125 C 240.394531 253.28125 240.429688 253.238281 240.472656 253.199219 C 240.460938 253.292969 240.445312 253.386719 240.433594 253.480469 C 240.304688 253.644531 240.183594 253.8125 240.066406 253.984375 C 239.976562 254.121094 239.886719 254.261719 239.800781 254.398438 C 239.886719 254.21875 239.976562 254.039062 240.066406 253.859375 C 240.160156 253.683594 240.246094 253.492188 240.363281 253.328125 Z M 238.335938 253.382812 C 238.257812 253.457031 238.183594 253.53125 238.109375 253.609375 C 238.105469 253.605469 238.097656 253.605469 238.089844 253.601562 C 238.179688 253.476562 238.273438 253.351562 238.371094 253.234375 C 238.359375 253.285156 238.347656 253.335938 238.335938 253.382812 Z M 242.855469 269.566406 C 242.90625 269.546875 242.957031 269.527344 243.003906 269.503906 C 243.066406 269.574219 243.128906 269.644531 243.191406 269.714844 C 243.148438 269.78125 243.109375 269.847656 243.085938 269.917969 C 243.042969 269.886719 243.003906 269.859375 242.960938 269.828125 C 242.925781 269.742188 242.890625 269.652344 242.855469 269.566406 Z M 254.601562 257.960938 C 254.375 258.535156 254.167969 259.117188 253.96875 259.703125 C 253.96875 259.703125 253.96875 259.699219 253.964844 259.699219 C 254.109375 259.121094 254.257812 258.546875 254.429688 257.980469 C 254.488281 257.984375 254.546875 257.980469 254.601562 257.960938 Z M 242.929688 253.015625 C 242.84375 252.925781 242.757812 252.835938 242.675781 252.746094 C 242.800781 252.769531 242.929688 252.792969 243.054688 252.820312 C 242.996094 252.871094 242.953125 252.941406 242.929688 253.015625 Z M 241.28125 252.675781 C 241.269531 252.632812 241.25 252.597656 241.230469 252.5625 C 241.300781 252.566406 241.375 252.570312 241.445312 252.578125 C 241.390625 252.609375 241.335938 252.640625 241.28125 252.675781 Z M 239.546875 253.136719 C 239.429688 253.070312 239.316406 253.039062 239.207031 253.023438 C 239.210938 252.929688 239.203125 252.832031 239.175781 252.742188 C 239.171875 252.722656 239.160156 252.707031 239.152344 252.6875 C 239.433594 252.632812 239.714844 252.601562 239.96875 252.582031 C 239.800781 252.734375 239.664062 252.929688 239.546875 253.136719 Z M 235.117188 256.902344 C 235.011719 257.222656 234.929688 257.550781 234.859375 257.882812 C 234.839844 257.875 234.820312 257.863281 234.808594 257.835938 C 234.769531 257.773438 235.007812 257.21875 235.027344 257.152344 C 235.054688 257.070312 235.082031 256.992188 235.109375 256.914062 C 235.113281 256.910156 235.117188 256.90625 235.117188 256.902344 Z M 234.515625 258.589844 C 234.441406 258.660156 234.390625 258.757812 234.386719 258.867188 C 234.367188 258.777344 234.347656 258.691406 234.332031 258.601562 C 234.324219 258.554688 234.316406 258.507812 234.3125 258.460938 C 234.371094 258.511719 234.441406 258.554688 234.515625 258.589844 Z M 253.265625 279.148438 C 253.265625 279.148438 253.265625 279.148438 253.269531 279.152344 C 253.347656 279.210938 253.429688 279.226562 253.511719 279.214844 C 253.441406 279.386719 253.371094 279.558594 253.296875 279.730469 C 253.222656 279.648438 253.148438 279.570312 253.070312 279.488281 C 253.136719 279.375 253.199219 279.261719 253.265625 279.148438 Z M 258.9375 273.457031 C 259.035156 273.269531 259.136719 273.085938 259.238281 272.902344 C 259.160156 273.058594 259.078125 273.210938 259 273.367188 C 258.980469 273.394531 258.957031 273.425781 258.9375 273.457031 Z M 266.136719 257.324219 C 266.125 257.347656 266.109375 257.375 266.097656 257.398438 C 265.984375 257.320312 265.828125 257.304688 265.691406 257.359375 C 266.0625 256.902344 266.371094 256.398438 266.609375 255.867188 C 266.582031 256.011719 266.550781 256.152344 266.53125 256.269531 C 266.527344 256.285156 266.523438 256.296875 266.519531 256.3125 C 266.421875 256.65625 266.296875 256.992188 266.136719 257.324219 Z M 264.957031 250.65625 C 265.066406 250.757812 265.089844 250.984375 265.089844 251.207031 C 265.042969 251.234375 264.992188 251.261719 264.945312 251.292969 C 264.917969 251.066406 264.875 250.835938 264.800781 250.625 C 264.863281 250.617188 264.917969 250.621094 264.957031 250.65625 Z M 237.074219 253.6875 C 236.851562 254.015625 236.644531 254.355469 236.453125 254.703125 C 236.433594 254.726562 236.414062 254.746094 236.394531 254.769531 C 236.519531 254.488281 236.628906 254.199219 236.730469 253.90625 C 236.761719 253.863281 236.796875 253.820312 236.832031 253.777344 C 236.945312 253.644531 236.949219 253.492188 236.894531 253.363281 C 236.925781 253.261719 236.953125 253.164062 236.980469 253.0625 C 236.984375 253.039062 236.988281 253.015625 236.988281 252.992188 C 237.097656 252.945312 237.207031 252.902344 237.316406 252.855469 C 237.199219 253.003906 237.101562 253.164062 237.03125 253.355469 C 236.980469 253.492188 237.007812 253.605469 237.074219 253.6875 Z M 248.824219 276.984375 C 248.871094 277.023438 248.921875 277.0625 248.96875 277.101562 C 249.003906 277.144531 249.039062 277.1875 249.074219 277.226562 C 248.953125 277.117188 248.835938 277.007812 248.71875 276.894531 C 248.753906 276.925781 248.789062 276.957031 248.824219 276.984375 Z M 261.335938 271.011719 C 261.417969 270.863281 261.503906 270.714844 261.585938 270.570312 C 261.515625 270.726562 261.4375 270.882812 261.351562 271.03125 C 261.347656 271.027344 261.339844 271.019531 261.335938 271.011719 Z M 266.457031 251.273438 C 266.34375 251.277344 266.234375 251.308594 266.128906 251.359375 C 266.070312 251.289062 266.003906 251.226562 265.917969 251.175781 C 265.894531 251.160156 265.875 251.152344 265.855469 251.144531 C 265.851562 251.128906 265.851562 251.117188 265.851562 251.105469 C 265.839844 250.894531 265.808594 250.679688 265.738281 250.480469 C 266.007812 250.71875 266.253906 250.984375 266.457031 251.273438 Z M 264.789062 249.792969 C 264.816406 249.808594 264.839844 249.824219 264.867188 249.839844 C 264.6875 249.84375 264.511719 249.894531 264.339844 249.964844 C 264.230469 249.886719 264.101562 249.832031 263.949219 249.800781 C 263.800781 249.582031 263.609375 249.421875 263.390625 249.316406 C 263.878906 249.386719 264.355469 249.53125 264.789062 249.792969 Z M 262.304688 249.277344 C 262.230469 249.304688 262.152344 249.335938 262.074219 249.378906 C 261.914062 249.472656 261.769531 249.589844 261.636719 249.714844 C 261.589844 249.734375 261.539062 249.753906 261.492188 249.777344 C 261.457031 249.75 261.421875 249.722656 261.382812 249.699219 C 261.128906 249.554688 260.890625 249.582031 260.667969 249.691406 C 260.664062 249.671875 260.664062 249.65625 260.664062 249.636719 C 260.660156 249.613281 260.652344 249.589844 260.644531 249.5625 C 261.179688 249.386719 261.753906 249.304688 262.304688 249.277344 Z M 235.238281 254.34375 C 235.332031 254.214844 235.433594 254.085938 235.539062 253.964844 C 235.203125 254.582031 234.90625 255.222656 234.652344 255.871094 C 234.621094 255.945312 234.589844 256.019531 234.558594 256.09375 C 234.683594 255.480469 234.859375 254.894531 235.238281 254.34375 Z M 254.5625 282.191406 C 254.6875 282.191406 254.8125 282.136719 254.898438 282.011719 C 255.195312 281.574219 255.480469 281.128906 255.761719 280.683594 C 255.621094 280.953125 255.476562 281.222656 255.335938 281.492188 C 255.222656 281.71875 255.105469 281.941406 254.988281 282.167969 C 254.9375 282.261719 254.890625 282.359375 254.839844 282.453125 C 254.75 282.363281 254.65625 282.277344 254.5625 282.191406 Z M 257.964844 276.972656 C 258.140625 276.640625 258.316406 276.308594 258.492188 275.976562 C 258.691406 275.609375 258.890625 275.246094 259.09375 274.878906 C 259.128906 274.878906 259.164062 274.875 259.199219 274.863281 C 259.105469 275.042969 259.011719 275.222656 258.914062 275.402344 C 258.621094 275.9375 258.292969 276.453125 257.964844 276.972656 Z M 259.464844 274.363281 C 259.457031 274.332031 259.441406 274.300781 259.421875 274.269531 C 259.53125 274.070312 259.636719 273.867188 259.742188 273.664062 C 259.828125 273.53125 259.917969 273.394531 260.003906 273.257812 C 260.007812 273.257812 260.007812 273.253906 260.011719 273.25 C 260.019531 273.257812 260.027344 273.269531 260.035156 273.277344 C 259.847656 273.640625 259.65625 274.003906 259.464844 274.363281 Z M 261.207031 273.296875 C 261.144531 273.230469 261.078125 273.160156 261.015625 273.089844 C 261.117188 272.894531 261.222656 272.703125 261.335938 272.515625 C 261.367188 272.472656 261.394531 272.425781 261.421875 272.382812 C 261.476562 272.433594 261.53125 272.488281 261.585938 272.539062 C 261.464844 272.800781 261.34375 273.0625 261.222656 273.320312 C 261.21875 273.3125 261.210938 273.304688 261.207031 273.296875 Z M 261.957031 271.738281 C 261.9375 271.714844 261.914062 271.691406 261.894531 271.664062 C 261.949219 271.578125 262.003906 271.488281 262.054688 271.398438 C 262.484375 270.636719 262.734375 269.785156 263.152344 269.015625 C 263.242188 268.851562 263.328125 268.6875 263.410156 268.519531 C 263.375 268.601562 263.34375 268.683594 263.3125 268.765625 C 262.890625 269.769531 262.414062 270.75 261.957031 271.738281 Z M 264.800781 263.53125 C 264.789062 263.546875 264.78125 263.566406 264.769531 263.585938 C 264.847656 263.429688 264.921875 263.273438 265.003906 263.121094 C 265.171875 262.808594 265.339844 262.496094 265.496094 262.175781 C 265.460938 262.265625 265.425781 262.355469 265.390625 262.445312 C 265.230469 262.828125 265.011719 263.175781 264.800781 263.53125 Z M 266.300781 260.085938 C 266.425781 259.648438 266.527344 259.207031 266.589844 258.761719 C 266.691406 258.519531 266.785156 258.277344 266.871094 258.027344 C 267.054688 257.492188 267.199219 256.941406 267.304688 256.382812 C 267.402344 256.011719 267.476562 255.628906 267.523438 255.242188 C 267.515625 255.597656 267.480469 255.945312 267.425781 256.285156 C 267.21875 257.582031 266.773438 258.847656 266.300781 260.085938 Z M 286.761719 291.25 C 288.476562 289.683594 290.1875 288.039062 291.65625 286.234375 C 293.148438 284.394531 293.972656 281.921875 293.5 279.566406 C 293.285156 278.5 292.726562 277.484375 291.910156 276.757812 C 291.058594 275.996094 289.910156 275.714844 288.789062 275.871094 C 287.496094 276.050781 286.308594 276.726562 285.265625 277.480469 C 284.707031 277.886719 284.167969 278.328125 283.664062 278.800781 C 283.367188 279.074219 283.097656 279.375 282.832031 279.679688 C 282.578125 278.644531 282.261719 277.625 281.746094 276.6875 C 281.15625 275.617188 280.324219 274.664062 279.332031 273.957031 C 278.269531 273.207031 277.109375 272.917969 275.820312 272.992188 C 274.652344 273.0625 273.480469 273.507812 272.71875 274.421875 C 272.34375 274.867188 272.03125 275.371094 271.816406 275.914062 C 271.578125 276.507812 271.535156 277.148438 271.574219 277.78125 C 271.648438 279.070312 271.808594 280.359375 272.144531 281.609375 C 272.484375 282.878906 272.863281 284.164062 273.433594 285.347656 C 273.984375 286.484375 274.554688 287.597656 275.226562 288.667969 C 275.984375 289.871094 276.8125 291.027344 277.59375 292.21875 C 278.097656 292.980469 278.683594 293.691406 279.277344 294.394531 C 279.152344 294.671875 279.457031 294.972656 279.730469 294.925781 C 279.910156 295.136719 280.089844 295.347656 280.261719 295.558594 C 280.441406 295.769531 280.683594 295.699219 280.820312 295.53125 C 281.894531 295.003906 282.925781 294.324219 283.890625 293.617188 C 284.890625 292.882812 285.84375 292.085938 286.761719 291.25 Z M 291.617188 278.304688 C 291.648438 278.472656 291.679688 278.640625 291.703125 278.808594 C 291.660156 278.667969 291.601562 278.53125 291.539062 278.402344 C 291.5625 278.371094 291.589844 278.339844 291.617188 278.304688 Z M 282.832031 290.304688 C 282.910156 290.167969 282.988281 290.027344 283.0625 289.890625 C 283.078125 289.90625 283.089844 289.925781 283.101562 289.945312 C 283.054688 290.011719 283.003906 290.074219 282.957031 290.136719 C 282.9375 290.160156 282.925781 290.183594 282.914062 290.207031 C 282.886719 290.242188 282.859375 290.273438 282.832031 290.304688 Z M 276.476562 275.964844 C 276.417969 276.054688 276.363281 276.144531 276.308594 276.238281 C 276.277344 276.214844 276.25 276.195312 276.21875 276.175781 C 276.257812 275.984375 276.296875 275.792969 276.324219 275.601562 C 276.375 275.519531 276.417969 275.433594 276.46875 275.347656 C 276.480469 275.554688 276.480469 275.757812 276.476562 275.964844 Z M 278.980469 284.082031 C 278.972656 284.105469 278.960938 284.128906 278.953125 284.152344 C 278.949219 284.144531 278.945312 284.140625 278.941406 284.132812 C 278.957031 284.113281 278.96875 284.097656 278.980469 284.082031 Z M 279.664062 285.117188 C 279.648438 285.234375 279.628906 285.363281 279.605469 285.496094 C 279.578125 285.433594 279.546875 285.375 279.519531 285.3125 C 279.566406 285.246094 279.617188 285.183594 279.664062 285.117188 Z M 280.214844 286.582031 C 280.191406 286.535156 280.164062 286.492188 280.136719 286.445312 C 280.15625 286.402344 280.175781 286.359375 280.191406 286.3125 C 280.207031 286.265625 280.222656 286.21875 280.234375 286.167969 C 280.253906 286.230469 280.273438 286.289062 280.292969 286.351562 C 280.265625 286.429688 280.242188 286.503906 280.214844 286.582031 Z M 280.074219 279.492188 C 280.046875 279.445312 280.019531 279.394531 279.992188 279.347656 C 279.953125 279.277344 279.898438 279.230469 279.835938 279.199219 C 279.84375 279.125 279.859375 279.050781 279.867188 278.976562 C 279.9375 279.128906 280.003906 279.28125 280.074219 279.433594 C 280.074219 279.453125 280.074219 279.472656 280.074219 279.492188 Z M 276.070312 283.324219 C 276.042969 283.398438 276.015625 283.472656 275.988281 283.546875 C 275.996094 283.496094 276.003906 283.449219 276.011719 283.402344 C 276.03125 283.378906 276.050781 283.351562 276.070312 283.324219 Z M 276.480469 284.425781 C 276.5625 284.261719 276.628906 284.09375 276.695312 283.921875 C 276.710938 284.089844 276.726562 284.257812 276.75 284.429688 C 276.738281 284.457031 276.730469 284.484375 276.71875 284.511719 C 276.703125 284.542969 276.6875 284.574219 276.671875 284.605469 C 276.609375 284.546875 276.546875 284.484375 276.480469 284.425781 Z M 280.660156 283.921875 C 280.671875 283.910156 280.683594 283.898438 280.695312 283.886719 C 280.746094 283.953125 280.800781 284.019531 280.855469 284.085938 C 280.847656 284.148438 280.835938 284.207031 280.828125 284.269531 C 280.773438 284.152344 280.71875 284.039062 280.660156 283.921875 Z M 281.851562 284.199219 C 282.023438 284.496094 282.195312 284.796875 282.371094 285.089844 C 282.332031 285.140625 282.292969 285.191406 282.253906 285.238281 C 282.121094 284.890625 281.984375 284.546875 281.851562 284.199219 Z M 285.640625 286.070312 C 285.492188 286.234375 285.34375 286.394531 285.199219 286.558594 C 285.199219 286.515625 285.195312 286.472656 285.183594 286.429688 C 285.335938 286.3125 285.488281 286.191406 285.640625 286.070312 Z M 278.640625 286.5625 C 278.65625 286.617188 278.675781 286.667969 278.695312 286.71875 C 278.644531 286.714844 278.597656 286.703125 278.550781 286.6875 C 278.582031 286.644531 278.609375 286.605469 278.640625 286.5625 Z M 281.410156 285.441406 C 281.40625 285.433594 281.402344 285.425781 281.398438 285.417969 C 281.410156 285.375 281.417969 285.332031 281.429688 285.285156 C 281.515625 285.507812 281.601562 285.730469 281.6875 285.953125 C 281.6875 285.953125 281.683594 285.957031 281.683594 285.957031 C 281.59375 285.785156 281.5 285.617188 281.410156 285.441406 Z M 282.789062 286.285156 C 282.765625 286.335938 282.738281 286.386719 282.714844 286.4375 C 282.703125 286.40625 282.691406 286.375 282.679688 286.339844 C 282.714844 286.320312 282.75 286.304688 282.789062 286.285156 Z M 278.949219 287.5 C 278.992188 287.632812 279.03125 287.765625 279.066406 287.898438 C 279 287.765625 278.933594 287.632812 278.859375 287.503906 C 278.890625 287.5 278.921875 287.503906 278.949219 287.5 Z M 280.359375 289.976562 C 280.382812 290.042969 280.40625 290.113281 280.429688 290.179688 C 280.386719 290.234375 280.34375 290.289062 280.300781 290.34375 C 280.28125 290.082031 280.257812 289.820312 280.21875 289.558594 C 280.265625 289.695312 280.3125 289.835938 280.359375 289.976562 Z M 280.976562 289.34375 C 280.992188 289.367188 281.007812 289.390625 281.023438 289.414062 C 281.019531 289.421875 281.011719 289.429688 281.007812 289.4375 C 280.996094 289.40625 280.984375 289.375 280.976562 289.34375 Z M 281.492188 287.460938 C 281.511719 287.433594 281.535156 287.40625 281.558594 287.375 C 281.671875 287.585938 281.789062 287.792969 281.90625 288 C 281.894531 288.019531 281.882812 288.042969 281.871094 288.066406 C 281.835938 288.125 281.800781 288.1875 281.765625 288.246094 C 281.671875 287.984375 281.582031 287.722656 281.492188 287.460938 Z M 284.738281 286.976562 C 284.746094 286.960938 284.753906 286.949219 284.761719 286.933594 C 284.792969 286.9375 284.828125 286.9375 284.859375 286.933594 C 284.761719 287.039062 284.667969 287.148438 284.574219 287.261719 C 284.628906 287.164062 284.683594 287.070312 284.738281 286.976562 Z M 289.390625 279.851562 C 289.386719 279.855469 289.386719 279.859375 289.382812 279.863281 C 289.394531 279.765625 289.410156 279.675781 289.414062 279.644531 C 289.417969 279.609375 289.421875 279.574219 289.425781 279.539062 C 289.441406 279.476562 289.449219 279.417969 289.453125 279.355469 C 289.484375 279.191406 289.523438 279.03125 289.59375 278.882812 C 289.640625 278.78125 289.710938 278.679688 289.796875 278.589844 C 289.742188 278.921875 289.621094 279.257812 289.511719 279.554688 C 289.472656 279.652344 289.433594 279.75 289.390625 279.851562 Z M 283.488281 287.535156 C 283.5 287.53125 283.507812 287.527344 283.515625 287.519531 C 283.4375 287.652344 283.363281 287.785156 283.285156 287.914062 C 283.273438 287.882812 283.261719 287.851562 283.246094 287.816406 C 283.328125 287.722656 283.410156 287.628906 283.488281 287.535156 Z M 281.316406 290.371094 C 281.382812 290.277344 281.445312 290.183594 281.507812 290.089844 C 281.554688 290.152344 281.597656 290.214844 281.640625 290.277344 C 281.699219 290.355469 281.777344 290.40625 281.859375 290.429688 C 281.746094 290.632812 281.628906 290.832031 281.507812 291.027344 C 281.453125 290.808594 281.386719 290.589844 281.316406 290.371094 Z M 283.375 281.128906 C 283.378906 281.128906 283.382812 281.125 283.386719 281.125 C 283.277344 281.257812 283.167969 281.390625 283.058594 281.519531 C 283.054688 281.460938 283.046875 281.398438 283.042969 281.335938 C 283.152344 281.269531 283.265625 281.199219 283.375 281.128906 Z M 274.769531 279.609375 C 274.773438 279.617188 274.78125 279.625 274.785156 279.636719 C 274.773438 279.664062 274.761719 279.695312 274.75 279.726562 C 274.691406 279.871094 274.640625 280.015625 274.59375 280.160156 C 274.617188 280.023438 274.644531 279.886719 274.675781 279.75 C 274.707031 279.703125 274.738281 279.65625 274.769531 279.609375 Z M 280.75 291.171875 C 280.769531 291.246094 280.785156 291.316406 280.796875 291.390625 C 280.765625 291.339844 280.730469 291.292969 280.699219 291.246094 C 280.714844 291.222656 280.734375 291.195312 280.75 291.171875 Z M 282.5 289.28125 C 282.421875 289.417969 282.34375 289.558594 282.269531 289.699219 C 282.21875 289.550781 282.167969 289.402344 282.113281 289.253906 C 282.214844 289.117188 282.3125 288.984375 282.414062 288.851562 C 282.472656 288.945312 282.527344 289.039062 282.585938 289.132812 C 282.558594 289.183594 282.527344 289.230469 282.5 289.28125 Z M 280.320312 292.070312 C 280.410156 292.191406 280.5 292.3125 280.589844 292.433594 C 280.550781 292.488281 280.511719 292.542969 280.476562 292.601562 C 280.417969 292.457031 280.355469 292.316406 280.292969 292.171875 C 280.308594 292.140625 280.316406 292.105469 280.320312 292.070312 Z M 284.902344 290.433594 C 284.914062 290.425781 284.921875 290.414062 284.929688 290.40625 C 284.917969 290.417969 284.90625 290.429688 284.894531 290.441406 C 284.898438 290.4375 284.902344 290.433594 284.902344 290.433594 Z M 288.457031 288.042969 C 289.117188 287.265625 289.761719 286.472656 290.375 285.660156 C 290.453125 285.558594 290.457031 285.445312 290.417969 285.347656 C 290.710938 284.980469 291.246094 284.382812 291.410156 283.820312 C 291.46875 283.785156 291.523438 283.75 291.574219 283.707031 C 291.410156 284.027344 291.242188 284.34375 291.058594 284.652344 C 290.257812 285.984375 289.277344 287.195312 288.246094 288.351562 C 288.140625 288.46875 288.03125 288.582031 287.925781 288.695312 C 288.105469 288.480469 288.28125 288.261719 288.457031 288.042969 Z M 292.527344 279.085938 C 292.660156 279.484375 292.726562 279.914062 292.722656 280.367188 C 292.714844 281.074219 292.527344 281.695312 292.246094 282.320312 C 292.390625 281.800781 292.484375 281.265625 292.53125 280.726562 C 292.582031 280.1875 292.578125 279.632812 292.527344 279.085938 Z M 291.1875 277.582031 C 291.175781 277.554688 291.171875 277.523438 291.160156 277.5 C 291.128906 277.417969 291.089844 277.34375 291.046875 277.28125 C 291.136719 277.332031 291.222656 277.386719 291.308594 277.445312 C 291.265625 277.492188 291.226562 277.535156 291.1875 277.582031 Z M 289.527344 277.050781 C 289.5 277.050781 289.472656 277.054688 289.445312 277.054688 C 289.429688 277.039062 289.414062 277.023438 289.398438 277.007812 C 289.304688 276.921875 289.183594 276.859375 289.050781 276.8125 C 289.351562 276.789062 289.664062 276.808594 289.972656 276.871094 C 289.824219 276.90625 289.671875 276.964844 289.527344 277.050781 Z M 277.382812 288.359375 C 277.390625 288.347656 277.402344 288.335938 277.410156 288.324219 C 277.714844 288.769531 278 289.222656 278.246094 289.714844 C 278.496094 290.214844 278.746094 290.714844 278.992188 291.21875 C 278.980469 291.214844 278.972656 291.207031 278.960938 291.203125 C 278.460938 290.511719 278.101562 289.773438 277.710938 289.011719 C 277.597656 288.792969 277.488281 288.578125 277.382812 288.359375 Z M 281.996094 293.105469 C 281.992188 293.113281 281.984375 293.125 281.976562 293.132812 C 281.871094 293.308594 281.914062 293.476562 282.027344 293.585938 C 281.96875 293.636719 281.910156 293.6875 281.851562 293.738281 C 281.753906 293.820312 281.191406 294.402344 281.089844 294.359375 C 280.996094 294.320312 281.742188 293.410156 281.996094 293.105469 Z M 278.902344 274.671875 C 278.839844 274.613281 278.777344 274.550781 278.714844 274.496094 C 278.789062 274.542969 278.863281 274.589844 278.933594 274.640625 C 278.921875 274.648438 278.914062 274.660156 278.902344 274.671875 Z M 272.421875 277.960938 C 272.417969 278.105469 272.445312 278.25 272.527344 278.378906 C 272.617188 278.523438 272.742188 278.613281 272.886719 278.664062 C 272.871094 278.738281 272.851562 278.808594 272.835938 278.878906 C 272.703125 278.851562 272.554688 278.894531 272.457031 278.988281 C 272.414062 278.671875 272.375 278.347656 272.351562 278.027344 C 272.375 278.003906 272.398438 277.980469 272.421875 277.960938 Z M 279.242188 292.832031 C 279.4375 293.070312 279.640625 293.304688 279.847656 293.535156 C 279.808594 293.589844 279.773438 293.644531 279.738281 293.699219 C 279.496094 293.40625 279.261719 293.117188 279.027344 292.820312 C 279.09375 292.847656 279.167969 292.855469 279.242188 292.832031 Z M 280.308594 294.386719 Z M 276.492188 273.753906 C 276.46875 273.769531 276.445312 273.789062 276.425781 273.8125 C 276.394531 273.851562 276.363281 273.894531 276.332031 273.9375 C 276.191406 273.796875 275.9375 273.777344 275.769531 273.925781 C 275.714844 273.972656 275.664062 274.023438 275.613281 274.070312 C 275.613281 274.0625 275.613281 274.050781 275.613281 274.042969 C 275.621094 273.941406 275.59375 273.863281 275.542969 273.800781 C 275.855469 273.757812 276.175781 273.738281 276.492188 273.753906 Z M 274.804688 273.972656 C 274.59375 274.316406 274.398438 274.667969 274.214844 275.023438 C 274.285156 274.78125 274.347656 274.535156 274.386719 274.285156 C 274.394531 274.230469 274.394531 274.179688 274.386719 274.132812 C 274.507812 274.074219 274.632812 274.023438 274.761719 273.984375 C 274.773438 273.976562 274.789062 273.976562 274.804688 273.972656 Z M 278.148438 291.613281 C 278.242188 291.679688 278.332031 291.746094 278.429688 291.800781 C 278.550781 291.960938 278.675781 292.121094 278.796875 292.277344 C 278.769531 292.355469 278.761719 292.429688 278.777344 292.503906 C 278.730469 292.441406 278.679688 292.382812 278.632812 292.320312 C 278.457031 292.09375 278.300781 291.855469 278.148438 291.613281 Z M 292.492188 285.882812 C 290.671875 288.703125 288.390625 291.195312 285.742188 293.253906 C 285.339844 293.5625 285.902344 294.117188 286.296875 293.808594 C 289 291.710938 291.316406 289.15625 293.171875 286.28125 C 293.449219 285.851562 292.765625 285.457031 292.492188 285.882812 Z M 275.191406 246.828125 C 275.597656 247.765625 276.082031 248.609375 276.714844 249.414062 C 277.324219 250.195312 277.914062 250.988281 278.617188 251.6875 C 279.125 252.191406 279.65625 252.683594 280.199219 253.15625 C 280.429688 253.574219 280.660156 253.988281 280.929688 254.378906 C 281.125 254.664062 281.511719 254.566406 281.636719 254.339844 C 281.726562 254.34375 281.820312 254.316406 281.902344 254.242188 C 282.628906 253.613281 283.367188 253 284.09375 252.375 C 284.300781 252.199219 284.5 252.019531 284.695312 251.839844 C 284.882812 251.976562 285.179688 251.988281 285.285156 251.742188 C 285.386719 251.496094 285.492188 251.253906 285.597656 251.011719 C 285.769531 250.859375 285.941406 250.710938 286.117188 250.566406 C 287.46875 249.453125 288.761719 248.183594 289.722656 246.714844 C 290.195312 245.996094 290.578125 245.175781 290.804688 244.34375 C 291 243.640625 291.050781 242.824219 290.601562 242.207031 C 290.492188 242.054688 290.359375 241.929688 290.210938 241.824219 C 290.21875 241.800781 290.226562 241.78125 290.234375 241.761719 C 290.410156 241.324219 289.75 241.109375 289.515625 241.457031 C 289.503906 241.46875 289.496094 241.484375 289.488281 241.496094 C 289.269531 241.441406 289.039062 241.414062 288.816406 241.417969 C 287.984375 241.4375 287.253906 241.863281 286.601562 242.34375 C 285.832031 242.90625 285.113281 243.511719 284.515625 244.261719 C 284.167969 244.691406 283.859375 245.140625 283.578125 245.605469 C 283.371094 245.0625 283.144531 244.523438 282.886719 243.996094 C 282.519531 243.242188 282.152344 242.484375 281.753906 241.746094 C 281.421875 241.136719 281.019531 240.574219 280.609375 240.015625 C 280.628906 239.839844 280.503906 239.710938 280.34375 239.664062 C 280.335938 239.652344 280.328125 239.640625 280.320312 239.628906 C 280.246094 239.527344 280.121094 239.46875 279.996094 239.457031 C 279.9375 239.390625 279.878906 239.328125 279.820312 239.265625 C 279.789062 239.144531 279.691406 239.054688 279.566406 239.015625 C 278.757812 238.25 277.765625 237.71875 276.625 237.894531 C 275.679688 238.039062 275.148438 238.777344 274.839844 239.628906 C 274.738281 239.910156 274.667969 240.191406 274.617188 240.472656 C 274.414062 240.460938 274.1875 240.585938 274.160156 240.847656 C 274.046875 241.90625 274.0625 242.929688 274.289062 243.972656 C 274.503906 244.953125 274.792969 245.90625 275.191406 246.828125 Z M 278.234375 247.285156 C 278.144531 247.136719 278.054688 246.984375 277.96875 246.832031 C 278.066406 246.699219 278.164062 246.5625 278.257812 246.425781 C 278.304688 246.511719 278.351562 246.597656 278.402344 246.683594 C 278.34375 246.886719 278.289062 247.085938 278.234375 247.289062 C 278.234375 247.289062 278.234375 247.285156 278.234375 247.285156 Z M 279.875 249.890625 C 279.902344 249.863281 279.925781 249.835938 279.945312 249.800781 C 279.976562 249.75 280.007812 249.703125 280.039062 249.652344 C 280.050781 249.679688 280.066406 249.710938 280.082031 249.738281 C 280.0625 249.804688 280.042969 249.871094 280.019531 249.9375 C 279.980469 249.929688 279.945312 249.929688 279.90625 249.933594 C 279.894531 249.917969 279.886719 249.90625 279.875 249.890625 Z M 284.617188 246.304688 C 284.640625 246.285156 284.664062 246.265625 284.683594 246.25 C 284.554688 246.425781 284.425781 246.601562 284.300781 246.773438 C 284.273438 246.738281 284.246094 246.699219 284.21875 246.660156 C 284.203125 246.5625 284.148438 246.476562 284.078125 246.414062 C 284.097656 246.390625 284.117188 246.371094 284.140625 246.351562 C 284.273438 246.4375 284.457031 246.445312 284.617188 246.304688 Z M 280.890625 246.652344 C 280.898438 246.664062 280.90625 246.675781 280.914062 246.683594 C 280.886719 246.730469 280.859375 246.777344 280.828125 246.824219 C 280.847656 246.765625 280.871094 246.710938 280.890625 246.652344 Z M 281.179688 243.804688 C 281.179688 243.804688 281.179688 243.804688 281.175781 243.804688 C 281.195312 243.765625 281.214844 243.730469 281.230469 243.691406 C 281.234375 243.699219 281.238281 243.703125 281.242188 243.710938 C 281.238281 243.714844 281.238281 243.71875 281.234375 243.722656 C 281.214844 243.75 281.195312 243.777344 281.179688 243.804688 Z M 280.679688 243.03125 C 280.65625 243.070312 280.636719 243.109375 280.613281 243.152344 C 280.585938 243.117188 280.554688 243.082031 280.523438 243.046875 C 280.558594 242.964844 280.59375 242.878906 280.628906 242.796875 C 280.664062 242.847656 280.699219 242.898438 280.734375 242.949219 C 280.714844 242.972656 280.695312 243 280.679688 243.03125 Z M 281.40625 248.222656 C 281.523438 247.871094 281.65625 247.53125 281.800781 247.195312 C 281.828125 247.234375 281.859375 247.269531 281.886719 247.308594 C 281.730469 247.636719 281.566406 247.957031 281.390625 248.273438 C 281.394531 248.257812 281.402344 248.238281 281.40625 248.222656 Z M 281.976562 244.9375 C 281.972656 244.933594 281.972656 244.929688 281.972656 244.929688 C 281.894531 244.796875 281.808594 244.675781 281.722656 244.550781 C 281.730469 244.535156 281.738281 244.519531 281.746094 244.503906 C 281.828125 244.636719 281.914062 244.769531 282 244.902344 C 281.992188 244.914062 281.984375 244.921875 281.976562 244.9375 Z M 280.0625 242.035156 C 279.988281 242.164062 279.914062 242.296875 279.835938 242.425781 C 279.792969 242.359375 279.75 242.289062 279.707031 242.222656 C 279.75 242.097656 279.792969 241.976562 279.84375 241.855469 C 279.851562 241.835938 279.859375 241.8125 279.867188 241.792969 C 279.933594 241.875 279.996094 241.953125 280.0625 242.035156 Z M 277.484375 243.621094 C 277.4375 243.5625 277.390625 243.503906 277.339844 243.445312 C 277.5 243.175781 277.660156 242.90625 277.824219 242.636719 C 277.707031 242.964844 277.59375 243.292969 277.484375 243.621094 Z M 275.5 242.4375 C 275.488281 242.472656 275.476562 242.507812 275.464844 242.542969 C 275.425781 242.667969 275.460938 242.785156 275.535156 242.875 C 275.519531 242.941406 275.515625 243.011719 275.511719 243.082031 C 275.457031 242.859375 275.410156 242.632812 275.378906 242.410156 C 275.417969 242.425781 275.457031 242.4375 275.5 242.4375 Z M 276.921875 244.167969 C 277.011719 244.289062 277.097656 244.410156 277.183594 244.539062 C 277.128906 244.699219 277.074219 244.859375 277.019531 245.019531 C 276.929688 244.835938 276.839844 244.648438 276.753906 244.460938 C 276.808594 244.363281 276.863281 244.265625 276.921875 244.167969 Z M 279.292969 248.765625 C 279.335938 248.679688 279.378906 248.59375 279.417969 248.507812 C 279.433594 248.53125 279.449219 248.558594 279.460938 248.582031 C 279.417969 248.742188 279.375 248.902344 279.335938 249.0625 C 279.296875 249 279.257812 248.9375 279.214844 248.875 C 279.246094 248.84375 279.273438 248.808594 279.292969 248.765625 Z M 279.546875 240.308594 C 279.535156 240.296875 279.523438 240.289062 279.511719 240.277344 C 279.527344 240.234375 279.542969 240.191406 279.558594 240.148438 C 279.574219 240.167969 279.589844 240.191406 279.609375 240.210938 C 279.585938 240.242188 279.566406 240.273438 279.546875 240.308594 Z M 282.464844 248 C 282.515625 248.058594 282.566406 248.117188 282.617188 248.171875 C 282.425781 248.519531 282.226562 248.863281 282.023438 249.207031 C 281.992188 249.265625 281.953125 249.320312 281.917969 249.378906 C 282.09375 248.914062 282.273438 248.457031 282.464844 248 Z M 278.226562 240.484375 C 278.152344 240.605469 278.078125 240.722656 278.003906 240.84375 C 278.066406 240.679688 278.128906 240.519531 278.195312 240.355469 C 278.203125 240.398438 278.214844 240.441406 278.226562 240.484375 Z M 280.601562 252.277344 C 280.738281 252.28125 280.878906 252.226562 280.972656 252.105469 C 281.113281 251.921875 281.25 251.738281 281.386719 251.554688 C 281.246094 251.972656 281.113281 252.386719 280.992188 252.808594 C 280.929688 252.757812 280.871094 252.703125 280.8125 252.652344 C 280.742188 252.527344 280.671875 252.402344 280.601562 252.277344 Z M 283.28125 248.816406 C 283.324219 248.851562 283.367188 248.886719 283.410156 248.925781 C 283.183594 249.355469 282.945312 249.785156 282.707031 250.210938 C 282.886719 249.742188 283.082031 249.277344 283.28125 248.816406 Z M 283 252.164062 C 283.023438 252.183594 283.050781 252.199219 283.078125 252.210938 C 283.019531 252.257812 282.960938 252.308594 282.902344 252.359375 C 282.933594 252.292969 282.964844 252.230469 283 252.164062 Z M 285.046875 249.90625 C 285.550781 249.085938 285.894531 248.214844 286.277344 247.335938 C 286.425781 247.003906 286.582031 246.671875 286.746094 246.34375 C 286.363281 247.164062 286.003906 248.003906 285.667969 248.84375 C 285.4375 249.417969 285.1875 249.980469 284.945312 250.546875 C 284.671875 250.789062 284.40625 251.035156 284.140625 251.28125 C 284.464844 250.839844 284.761719 250.375 285.046875 249.90625 Z M 278.773438 239.648438 C 278.746094 239.625 278.71875 239.601562 278.6875 239.578125 C 278.632812 239.539062 278.578125 239.523438 278.523438 239.515625 C 278.554688 239.429688 278.589844 239.347656 278.621094 239.261719 C 278.625 239.253906 278.625 239.25 278.625 239.246094 C 278.71875 239.3125 278.808594 239.386719 278.894531 239.460938 C 278.855469 239.523438 278.8125 239.585938 278.773438 239.648438 Z M 277.816406 249.5625 C 277.441406 249.070312 277.035156 248.59375 276.703125 248.074219 C 276.128906 247.164062 275.703125 246.140625 275.394531 245.105469 C 275.46875 245.269531 275.546875 245.429688 275.628906 245.589844 C 276.097656 246.507812 276.582031 247.390625 277.226562 248.203125 C 277.824219 248.957031 278.25 249.8125 278.71875 250.644531 C 278.40625 250.292969 278.105469 249.933594 277.816406 249.5625 Z M 281.699219 253.382812 C 281.671875 253.363281 281.644531 253.339844 281.617188 253.316406 C 281.636719 253.300781 281.652344 253.28125 281.667969 253.257812 C 281.753906 253.132812 281.839844 253.011719 281.929688 252.886719 C 281.960938 252.957031 282.015625 253.015625 282.074219 253.0625 C 281.949219 253.167969 281.824219 253.277344 281.699219 253.382812 Z M 286.828125 248.230469 C 286.832031 248.402344 286.976562 248.539062 287.144531 248.582031 C 286.882812 248.84375 286.609375 249.097656 286.332031 249.347656 C 286.496094 248.976562 286.664062 248.601562 286.828125 248.230469 Z M 288.367188 242.277344 C 287.960938 242.714844 287.59375 243.191406 287.277344 243.699219 C 287.269531 243.695312 287.257812 243.6875 287.25 243.679688 C 287.574219 243.269531 287.867188 242.832031 288.109375 242.363281 C 288.167969 242.339844 288.222656 242.316406 288.28125 242.300781 C 288.308594 242.292969 288.339844 242.285156 288.367188 242.277344 Z M 288.367188 242.277344 " fill-opacity="1" fill-rule="nonzero"/></g></svg>